<?xml version="1.0" encoding="utf-8" standalone="no"?>
<!DOCTYPE svg PUBLIC "-//W3C//DTD SVG 1.1//EN"
  "http://www.w3.org/Graphics/SVG/1.1/DTD/svg11.dtd">
<svg xmlns:xlink="http://www.w3.org/1999/xlink" width="460.8pt" height="345.6pt" viewBox="0 0 460.8 345.6" xmlns="http://www.w3.org/2000/svg" version="1.1">
 <metadata>
  <rdf:RDF xmlns:dc="http://purl.org/dc/elements/1.1/" xmlns:cc="http://creativecommons.org/ns#" xmlns:rdf="http://www.w3.org/1999/02/22-rdf-syntax-ns#">
   <cc:Work>
    <dc:type rdf:resource="http://purl.org/dc/dcmitype/StillImage"/>
    <dc:date>2024-05-27T10:08:57.601968</dc:date>
    <dc:format>image/svg+xml</dc:format>
    <dc:creator>
     <cc:Agent>
      <dc:title>Matplotlib v3.8.0, https://matplotlib.org/</dc:title>
     </cc:Agent>
    </dc:creator>
   </cc:Work>
  </rdf:RDF>
 </metadata>
 <defs>
  <style type="text/css">*{stroke-linejoin: round; stroke-linecap: butt}</style>
 </defs>
 <g id="figure_1">
  <g id="patch_1">
   <path d="M 0 345.6 
L 460.8 345.6 
L 460.8 0 
L 0 0 
z
" style="fill: #ffffff"/>
  </g>
  <g id="axes_1">
   <g id="patch_2">
    <path d="M 57.6 307.584 
L 414.72 307.584 
L 414.72 41.472 
L 57.6 41.472 
z
" style="fill: #ffffff"/>
   </g>
   <g id="matplotlib.axis_1">
    <g id="xtick_1">
     <g id="line2d_1">
      <defs>
       <path id="meee10d448a" d="M 0 0 
L 0 3.5 
" style="stroke: #000000; stroke-width: 0.8"/>
      </defs>
      <g>
       <use xlink:href="#meee10d448a" x="73.832727" y="307.584" style="stroke: #000000; stroke-width: 0.8"/>
      </g>
     </g>
     <g id="text_1">
      <!-- $\mathdefault{0}$ -->
      <g transform="translate(70.906232 322.88618) scale(0.12 -0.12)">
       <defs>
        <path id="CMR17-30" d="M 2688 2038 
C 2688 2430 2682 3099 2413 3613 
C 2176 4063 1798 4224 1466 4224 
C 1158 4224 768 4082 525 3620 
C 269 3137 243 2539 243 2038 
C 243 1671 250 1112 448 623 
C 723 -39 1216 -128 1466 -128 
C 1760 -128 2208 -7 2470 604 
C 2662 1048 2688 1568 2688 2038 
z
M 1466 -26 
C 1056 -26 813 328 723 816 
C 653 1196 653 1749 653 2109 
C 653 2604 653 3015 736 3407 
C 858 3954 1216 4121 1466 4121 
C 1728 4121 2067 3947 2189 3420 
C 2272 3054 2278 2623 2278 2109 
C 2278 1691 2278 1176 2202 797 
C 2067 96 1690 -26 1466 -26 
z
" transform="scale(0.015625)"/>
       </defs>
       <use xlink:href="#CMR17-30" transform="scale(0.996264)"/>
      </g>
     </g>
    </g>
    <g id="xtick_2">
     <g id="line2d_2">
      <g>
       <use xlink:href="#meee10d448a" x="138.763636" y="307.584" style="stroke: #000000; stroke-width: 0.8"/>
      </g>
     </g>
     <g id="text_2">
      <!-- $\mathdefault{100}$ -->
      <g transform="translate(129.984151 322.88618) scale(0.12 -0.12)">
       <defs>
        <path id="CMR17-31" d="M 1702 4083 
C 1702 4217 1696 4224 1606 4224 
C 1357 3927 979 3833 621 3820 
C 602 3820 570 3820 563 3808 
C 557 3795 557 3782 557 3648 
C 755 3648 1088 3686 1344 3839 
L 1344 467 
C 1344 243 1331 166 781 166 
L 589 166 
L 589 0 
C 896 6 1216 12 1523 12 
C 1830 12 2150 6 2458 0 
L 2458 166 
L 2266 166 
C 1715 166 1702 236 1702 467 
L 1702 4083 
z
" transform="scale(0.015625)"/>
       </defs>
       <use xlink:href="#CMR17-31" transform="scale(0.996264)"/>
       <use xlink:href="#CMR17-30" transform="translate(45.690477 0) scale(0.996264)"/>
       <use xlink:href="#CMR17-30" transform="translate(91.380954 0) scale(0.996264)"/>
      </g>
     </g>
    </g>
    <g id="xtick_3">
     <g id="line2d_3">
      <g>
       <use xlink:href="#meee10d448a" x="203.694545" y="307.584" style="stroke: #000000; stroke-width: 0.8"/>
      </g>
     </g>
     <g id="text_3">
      <!-- $\mathdefault{200}$ -->
      <g transform="translate(194.91506 322.88618) scale(0.12 -0.12)">
       <defs>
        <path id="CMR17-32" d="M 2669 990 
L 2554 990 
C 2490 537 2438 460 2413 422 
C 2381 371 1920 371 1830 371 
L 602 371 
C 832 620 1280 1073 1824 1596 
C 2214 1966 2669 2400 2669 3033 
C 2669 3788 2067 4224 1395 4224 
C 691 4224 262 3603 262 3027 
C 262 2777 448 2745 525 2745 
C 589 2745 781 2783 781 3007 
C 781 3206 614 3264 525 3264 
C 486 3264 448 3257 422 3244 
C 544 3788 915 4057 1306 4057 
C 1862 4057 2227 3616 2227 3033 
C 2227 2477 1901 1998 1536 1583 
L 262 147 
L 262 0 
L 2515 0 
L 2669 990 
z
" transform="scale(0.015625)"/>
       </defs>
       <use xlink:href="#CMR17-32" transform="scale(0.996264)"/>
       <use xlink:href="#CMR17-30" transform="translate(45.690477 0) scale(0.996264)"/>
       <use xlink:href="#CMR17-30" transform="translate(91.380954 0) scale(0.996264)"/>
      </g>
     </g>
    </g>
    <g id="xtick_4">
     <g id="line2d_4">
      <g>
       <use xlink:href="#meee10d448a" x="268.625455" y="307.584" style="stroke: #000000; stroke-width: 0.8"/>
      </g>
     </g>
     <g id="text_4">
      <!-- $\mathdefault{300}$ -->
      <g transform="translate(259.845969 322.88618) scale(0.12 -0.12)">
       <defs>
        <path id="CMR17-33" d="M 1414 2176 
C 1984 2176 2234 1673 2234 1094 
C 2234 322 1824 25 1453 25 
C 1114 25 563 193 390 691 
C 422 678 454 678 486 678 
C 640 678 755 780 755 947 
C 755 1132 614 1216 486 1216 
C 378 1216 211 1164 211 927 
C 211 335 787 -128 1466 -128 
C 2176 -128 2720 432 2720 1087 
C 2720 1718 2208 2176 1600 2246 
C 2086 2347 2554 2776 2554 3353 
C 2554 3856 2048 4224 1472 4224 
C 890 4224 378 3862 378 3347 
C 378 3123 544 3084 627 3084 
C 762 3084 877 3167 877 3334 
C 877 3500 762 3584 627 3584 
C 602 3584 570 3584 544 3571 
C 730 3999 1235 4076 1459 4076 
C 1683 4076 2106 3966 2106 3347 
C 2106 3167 2080 2851 1862 2574 
C 1670 2329 1453 2316 1242 2297 
C 1210 2297 1062 2284 1037 2284 
C 992 2278 966 2272 966 2227 
C 966 2182 973 2176 1101 2176 
L 1414 2176 
z
" transform="scale(0.015625)"/>
       </defs>
       <use xlink:href="#CMR17-33" transform="scale(0.996264)"/>
       <use xlink:href="#CMR17-30" transform="translate(45.690477 0) scale(0.996264)"/>
       <use xlink:href="#CMR17-30" transform="translate(91.380954 0) scale(0.996264)"/>
      </g>
     </g>
    </g>
    <g id="xtick_5">
     <g id="line2d_5">
      <g>
       <use xlink:href="#meee10d448a" x="333.556364" y="307.584" style="stroke: #000000; stroke-width: 0.8"/>
      </g>
     </g>
     <g id="text_5">
      <!-- $\mathdefault{400}$ -->
      <g transform="translate(324.776878 322.88618) scale(0.12 -0.12)">
       <defs>
        <path id="CMR17-34" d="M 2150 4147 
C 2150 4281 2144 4288 2029 4288 
L 128 1254 
L 128 1088 
L 1779 1088 
L 1779 460 
C 1779 230 1766 166 1318 166 
L 1197 166 
L 1197 0 
C 1402 12 1747 12 1965 12 
C 2182 12 2528 12 2733 0 
L 2733 166 
L 2611 166 
C 2163 166 2150 230 2150 460 
L 2150 1088 
L 2803 1088 
L 2803 1254 
L 2150 1254 
L 2150 4147 
z
M 1798 3723 
L 1798 1254 
L 256 1254 
L 1798 3723 
z
" transform="scale(0.015625)"/>
       </defs>
       <use xlink:href="#CMR17-34" transform="scale(0.996264)"/>
       <use xlink:href="#CMR17-30" transform="translate(45.690477 0) scale(0.996264)"/>
       <use xlink:href="#CMR17-30" transform="translate(91.380954 0) scale(0.996264)"/>
      </g>
     </g>
    </g>
    <g id="xtick_6">
     <g id="line2d_6">
      <g>
       <use xlink:href="#meee10d448a" x="398.487273" y="307.584" style="stroke: #000000; stroke-width: 0.8"/>
      </g>
     </g>
     <g id="text_6">
      <!-- $\mathdefault{500}$ -->
      <g transform="translate(389.707787 322.88618) scale(0.12 -0.12)">
       <defs>
        <path id="CMR17-35" d="M 730 3750 
C 794 3724 1056 3641 1325 3641 
C 1920 3641 2246 3961 2432 4140 
C 2432 4191 2432 4224 2394 4224 
C 2387 4224 2374 4224 2323 4198 
C 2099 4102 1837 4032 1517 4032 
C 1325 4032 1037 4055 723 4191 
C 653 4224 640 4224 634 4224 
C 602 4224 595 4217 595 4090 
L 595 2231 
C 595 2113 595 2080 659 2080 
C 691 2080 704 2093 736 2139 
C 941 2435 1222 2560 1542 2560 
C 1766 2560 2246 2415 2246 1293 
C 2246 1087 2246 716 2054 422 
C 1894 159 1645 25 1370 25 
C 947 25 518 319 403 812 
C 429 806 480 793 506 793 
C 589 793 749 838 749 1036 
C 749 1209 627 1280 506 1280 
C 358 1280 262 1190 262 1011 
C 262 454 704 -128 1382 -128 
C 2042 -128 2669 441 2669 1267 
C 2669 2054 2170 2662 1549 2662 
C 1222 2662 947 2540 730 2304 
L 730 3750 
z
" transform="scale(0.015625)"/>
       </defs>
       <use xlink:href="#CMR17-35" transform="scale(0.996264)"/>
       <use xlink:href="#CMR17-30" transform="translate(45.690477 0) scale(0.996264)"/>
       <use xlink:href="#CMR17-30" transform="translate(91.380954 0) scale(0.996264)"/>
      </g>
     </g>
    </g>
    <g id="text_7">
     <!-- Episode -->
     <g transform="translate(217.357143 337.512955) scale(0.12 -0.12)">
      <defs>
       <path id="CMSS17-45" d="M 1958 435 
C 1446 435 1216 435 1101 428 
L 1101 2105 
L 3085 2105 
L 3085 2496 
L 1101 2496 
L 1101 3993 
L 1926 3993 
C 2003 3993 2080 3987 2157 3987 
L 3251 3987 
L 3251 4403 
L 563 4403 
L 563 0 
L 3334 0 
L 3334 441 
L 1958 435 
z
" transform="scale(0.015625)"/>
       <path id="CMSS17-70" d="M 966 275 
C 1178 70 1466 -64 1773 -64 
C 2368 -64 2880 553 2880 1382 
C 2880 2147 2496 2816 1946 2816 
C 1626 2816 1242 2700 954 2470 
L 954 2764 
L 480 2764 
L 480 -1280 
L 966 -1280 
L 966 275 
z
M 966 2088 
C 1018 2166 1235 2412 1587 2412 
C 2035 2412 2394 1946 2394 1382 
C 2394 741 1958 326 1530 326 
C 1402 326 1267 358 1139 468 
C 966 624 966 721 966 812 
L 966 2088 
z
" transform="scale(0.015625)"/>
       <path id="CMSS17-69" d="M 979 4224 
L 442 4224 
L 442 3686 
L 979 3686 
L 979 4224 
z
M 947 2752 
L 474 2752 
L 474 0 
L 947 0 
L 947 2752 
z
" transform="scale(0.015625)"/>
       <path id="CMSS17-73" d="M 2061 2623 
C 1683 2803 1389 2816 1197 2816 
C 742 2816 198 2655 198 2009 
C 198 1363 902 1222 1094 1183 
C 1389 1126 1715 1062 1715 742 
C 1715 339 1254 339 1171 339 
C 915 339 563 409 243 639 
L 166 211 
C 531 0 883 -64 1178 -64 
C 1965 -64 2163 416 2163 780 
C 2163 1094 1984 1305 1862 1401 
C 1651 1567 1574 1587 1050 1695 
C 960 1708 646 1779 646 2067 
C 646 2431 1050 2431 1139 2431 
C 1555 2431 1811 2303 1984 2207 
L 2061 2623 
z
" transform="scale(0.015625)"/>
       <path id="CMSS17-6f" d="M 2829 1356 
C 2829 2175 2221 2816 1504 2816 
C 768 2816 173 2156 173 1356 
C 173 544 787 -64 1498 -64 
C 2227 -64 2829 563 2829 1356 
z
M 1504 339 
C 1050 339 659 710 659 1407 
C 659 2150 1114 2425 1498 2425 
C 1914 2425 2342 2124 2342 1407 
C 2342 684 1926 339 1504 339 
z
" transform="scale(0.015625)"/>
       <path id="CMSS17-64" d="M 2611 4416 
L 2138 4416 
L 2138 2495 
C 1939 2662 1613 2816 1254 2816 
C 672 2816 211 2179 211 1375 
C 211 572 666 -64 1235 -64 
C 1677 -64 1971 172 2125 307 
L 2125 -13 
L 2611 -13 
L 2611 4416 
z
M 2125 851 
C 2125 760 2125 663 1926 488 
C 1798 378 1645 326 1498 326 
C 1152 326 698 585 698 1369 
C 698 2185 1210 2425 1562 2425 
C 1798 2425 1990 2308 2125 2114 
L 2125 851 
z
" transform="scale(0.015625)"/>
       <path id="CMSS17-65" d="M 2502 1375 
C 2502 1587 2490 2001 2285 2347 
C 2061 2713 1696 2816 1421 2816 
C 755 2816 192 2184 192 1363 
C 192 579 774 -64 1510 -64 
C 1798 -64 2150 19 2470 249 
C 2470 275 2458 414 2451 421 
C 2451 433 2432 629 2432 655 
C 2125 408 1773 326 1517 326 
C 1107 326 666 667 646 1375 
L 2502 1375 
z
M 698 1728 
C 781 2086 1062 2425 1421 2425 
C 1517 2425 1965 2412 2080 1728 
L 698 1728 
z
" transform="scale(0.015625)"/>
      </defs>
      <use xlink:href="#CMSS17-45" transform="scale(0.996264)"/>
      <use xlink:href="#CMSS17-70" transform="translate(55.892013 0) scale(0.996264)"/>
      <use xlink:href="#CMSS17-69" transform="translate(104.096956 0) scale(0.996264)"/>
      <use xlink:href="#CMSS17-73" transform="translate(126.277679 0) scale(0.996264)"/>
      <use xlink:href="#CMSS17-6f" transform="translate(162.191221 0) scale(0.996264)"/>
      <use xlink:href="#CMSS17-64" transform="translate(211.637284 0) scale(0.996264)"/>
      <use xlink:href="#CMSS17-65" transform="translate(259.842227 0) scale(0.996264)"/>
     </g>
    </g>
   </g>
   <g id="matplotlib.axis_2">
    <g id="ytick_1">
     <g id="line2d_7">
      <defs>
       <path id="mcb141d07ff" d="M 0 0 
L -3.5 0 
" style="stroke: #000000; stroke-width: 0.8"/>
      </defs>
      <g>
       <use xlink:href="#mcb141d07ff" x="57.6" y="275.866291" style="stroke: #000000; stroke-width: 0.8"/>
      </g>
     </g>
     <g id="text_8">
      <!-- $\mathdefault{−60000}$ -->
      <g transform="translate(12.036559 280.017381) scale(0.12 -0.12)">
       <defs>
        <path id="CMSY10-0" d="M 4218 1472 
C 4326 1472 4442 1472 4442 1600 
C 4442 1728 4326 1728 4218 1728 
L 755 1728 
C 646 1728 531 1728 531 1600 
C 531 1472 646 1472 755 1472 
L 4218 1472 
z
" transform="scale(0.015625)"/>
        <path id="CMR17-36" d="M 678 2198 
C 678 3712 1395 4076 1811 4076 
C 1946 4076 2272 4049 2400 3782 
C 2298 3782 2106 3782 2106 3558 
C 2106 3385 2246 3328 2336 3328 
C 2394 3328 2566 3353 2566 3571 
C 2566 3987 2246 4224 1805 4224 
C 1043 4224 243 3411 243 2011 
C 243 257 966 -128 1478 -128 
C 2099 -128 2688 431 2688 1295 
C 2688 2101 2170 2688 1517 2688 
C 1126 2688 838 2430 678 1979 
L 678 2198 
z
M 1478 25 
C 691 25 691 1212 691 1450 
C 691 1914 909 2585 1504 2585 
C 1613 2585 1926 2585 2138 2140 
C 2253 1889 2253 1624 2253 1302 
C 2253 954 2253 696 2118 438 
C 1978 173 1773 25 1478 25 
z
" transform="scale(0.015625)"/>
       </defs>
       <use xlink:href="#CMSY10-0" transform="scale(0.996264)"/>
       <use xlink:href="#CMR17-36" transform="translate(77.487468 0) scale(0.996264)"/>
       <use xlink:href="#CMR17-30" transform="translate(123.177945 0) scale(0.996264)"/>
       <use xlink:href="#CMR17-30" transform="translate(168.868422 0) scale(0.996264)"/>
       <use xlink:href="#CMR17-30" transform="translate(214.558899 0) scale(0.996264)"/>
       <use xlink:href="#CMR17-30" transform="translate(260.249376 0) scale(0.996264)"/>
      </g>
     </g>
    </g>
    <g id="ytick_2">
     <g id="line2d_8">
      <g>
       <use xlink:href="#mcb141d07ff" x="57.6" y="227.375722" style="stroke: #000000; stroke-width: 0.8"/>
      </g>
     </g>
     <g id="text_9">
      <!-- $\mathdefault{−40000}$ -->
      <g transform="translate(12.036559 231.526812) scale(0.12 -0.12)">
       <use xlink:href="#CMSY10-0" transform="scale(0.996264)"/>
       <use xlink:href="#CMR17-34" transform="translate(77.487468 0) scale(0.996264)"/>
       <use xlink:href="#CMR17-30" transform="translate(123.177945 0) scale(0.996264)"/>
       <use xlink:href="#CMR17-30" transform="translate(168.868422 0) scale(0.996264)"/>
       <use xlink:href="#CMR17-30" transform="translate(214.558899 0) scale(0.996264)"/>
       <use xlink:href="#CMR17-30" transform="translate(260.249376 0) scale(0.996264)"/>
      </g>
     </g>
    </g>
    <g id="ytick_3">
     <g id="line2d_9">
      <g>
       <use xlink:href="#mcb141d07ff" x="57.6" y="178.885152" style="stroke: #000000; stroke-width: 0.8"/>
      </g>
     </g>
     <g id="text_10">
      <!-- $\mathdefault{−20000}$ -->
      <g transform="translate(12.036559 183.036242) scale(0.12 -0.12)">
       <use xlink:href="#CMSY10-0" transform="scale(0.996264)"/>
       <use xlink:href="#CMR17-32" transform="translate(77.487468 0) scale(0.996264)"/>
       <use xlink:href="#CMR17-30" transform="translate(123.177945 0) scale(0.996264)"/>
       <use xlink:href="#CMR17-30" transform="translate(168.868422 0) scale(0.996264)"/>
       <use xlink:href="#CMR17-30" transform="translate(214.558899 0) scale(0.996264)"/>
       <use xlink:href="#CMR17-30" transform="translate(260.249376 0) scale(0.996264)"/>
      </g>
     </g>
    </g>
    <g id="ytick_4">
     <g id="line2d_10">
      <g>
       <use xlink:href="#mcb141d07ff" x="57.6" y="130.394583" style="stroke: #000000; stroke-width: 0.8"/>
      </g>
     </g>
     <g id="text_11">
      <!-- $\mathdefault{0}$ -->
      <g transform="translate(44.74701 134.545673) scale(0.12 -0.12)">
       <use xlink:href="#CMR17-30" transform="scale(0.996264)"/>
      </g>
     </g>
    </g>
    <g id="ytick_5">
     <g id="line2d_11">
      <g>
       <use xlink:href="#mcb141d07ff" x="57.6" y="81.904013" style="stroke: #000000; stroke-width: 0.8"/>
      </g>
     </g>
     <g id="text_12">
      <!-- $\mathdefault{20000}$ -->
      <g transform="translate(21.335049 86.055103) scale(0.12 -0.12)">
       <use xlink:href="#CMR17-32" transform="scale(0.996264)"/>
       <use xlink:href="#CMR17-30" transform="translate(45.690477 0) scale(0.996264)"/>
       <use xlink:href="#CMR17-30" transform="translate(91.380954 0) scale(0.996264)"/>
       <use xlink:href="#CMR17-30" transform="translate(137.071431 0) scale(0.996264)"/>
       <use xlink:href="#CMR17-30" transform="translate(182.761908 0) scale(0.996264)"/>
      </g>
     </g>
    </g>
    <g id="text_13">
     <!-- Reward -->
     <g transform="translate(5.711964 192.342916) rotate(-90) scale(0.12 -0.12)">
      <defs>
       <path id="CMSS17-52" d="M 2522 2099 
L 2534 2105 
C 3533 2450 3539 3125 3539 3244 
C 3539 3838 2925 4416 2003 4416 
L 570 4416 
L 570 0 
L 1094 0 
L 1094 2041 
L 2035 2041 
L 3168 0 
L 3706 0 
L 2522 2099 
z
M 1094 2432 
L 1094 4057 
L 1933 4057 
C 2746 4057 3034 3607 3034 3244 
C 3034 2907 2778 2432 1933 2432 
L 1094 2432 
z
" transform="scale(0.015625)"/>
       <path id="CMSS17-77" d="M 4013 2752 
L 3526 2752 
L 3187 1600 
C 3117 1356 2918 684 2893 371 
L 2886 371 
C 2874 563 2765 1024 2586 1632 
L 2259 2752 
L 1818 2752 
L 1498 1657 
C 1338 1100 1216 627 1203 371 
L 1197 371 
C 1171 748 909 1632 870 1772 
L 582 2752 
L 83 2752 
L 915 0 
L 1402 0 
C 1734 1100 1990 1952 2010 2380 
C 2022 2169 2131 1715 2195 1491 
L 2618 0 
L 3181 0 
L 4013 2752 
z
" transform="scale(0.015625)"/>
       <path id="CMSS17-61" d="M 2406 1789 
C 2406 2399 1978 2816 1402 2816 
C 1120 2816 813 2764 461 2559 
L 499 2133 
C 659 2250 934 2438 1395 2438 
C 1722 2438 1920 2185 1920 1782 
L 1920 1536 
C 896 1504 256 1209 256 711 
C 256 452 416 -64 947 -64 
C 1043 -64 1562 -52 1933 224 
L 1933 -13 
L 2406 -13 
L 2406 1789 
z
M 1920 824 
C 1920 711 1920 559 1728 446 
C 1562 339 1350 326 1261 326 
C 941 326 723 503 723 723 
C 723 1165 1722 1209 1920 1216 
L 1920 824 
z
" transform="scale(0.015625)"/>
       <path id="CMSS17-72" d="M 954 1369 
C 954 1974 1395 2379 1958 2392 
L 1958 2816 
C 1549 2809 1165 2604 934 2270 
L 934 2783 
L 480 2783 
L 480 0 
L 954 0 
L 954 1369 
z
" transform="scale(0.015625)"/>
      </defs>
      <use xlink:href="#CMSS17-52" transform="scale(0.996264)"/>
      <use xlink:href="#CMSS17-65" transform="translate(60.416155 0) scale(0.996264)"/>
      <use xlink:href="#CMSS17-77" transform="translate(102.054977 0) scale(0.996264)"/>
      <use xlink:href="#CMSS17-61" transform="translate(163.272068 0) scale(0.996264)"/>
      <use xlink:href="#CMSS17-72" transform="translate(205.591535 0) scale(0.996264)"/>
      <use xlink:href="#CMSS17-64" transform="translate(237.501307 0) scale(0.996264)"/>
     </g>
    </g>
   </g>
   <g id="line2d_12">
    <path d="M 73.832727 130.879489 
L 110.194036 157.946924 
L 116.037818 161.00183 
L 117.985745 162.015283 
L 119.933673 163.065104 
L 121.8816 163.867623 
L 122.530909 164.345255 
L 123.180218 164.616802 
L 124.478836 165.293246 
L 126.426764 166.270331 
L 128.374691 167.446227 
L 129.673309 168.285114 
L 130.971927 169.051265 
L 135.517091 171.373963 
L 136.815709 171.912208 
L 137.465018 172.397114 
L 139.412945 173.352378 
L 140.711564 174.033671 
L 144.607418 176.140586 
L 148.503273 178.186888 
L 149.152582 178.436615 
L 149.801891 178.882728 
L 151.100509 179.580992 
L 152.399127 180.281681 
L 154.347055 181.219973 
L 157.5936 182.968058 
L 159.541527 184.049398 
L 161.489455 184.917379 
L 163.437382 185.647162 
L 169.281164 188.241408 
L 170.579782 188.893606 
L 172.527709 189.66703 
L 173.826327 190.4647 
L 175.124945 190.947181 
L 176.423564 191.771521 
L 177.072873 192.028521 
L 178.371491 192.72921 
L 179.0208 193.097738 
L 179.670109 193.323219 
L 184.864582 196.264172 
L 188.760436 197.893455 
L 189.409745 198.172276 
L 190.708364 198.943276 
L 192.006982 199.43788 
L 192.656291 199.643965 
L 195.902836 201.535097 
L 197.201455 202.022427 
L 198.500073 202.781305 
L 199.149382 203.048003 
L 199.798691 203.513512 
L 201.097309 204.209352 
L 206.291782 206.854513 
L 210.187636 208.617145 
L 217.330036 212.520636 
L 220.576582 213.987475 
L 229.666909 218.327381 
L 231.614836 219.132325 
L 235.510691 221.149533 
L 242.003782 224.27475 
L 242.653091 224.611759 
L 245.250327 225.55975 
L 247.198255 226.435005 
L 247.847564 226.827778 
L 249.146182 227.339354 
L 258.236509 231.11192 
L 259.535127 231.608948 
L 264.7296 234.077118 
L 265.378909 234.3026 
L 266.677527 234.947524 
L 267.976145 235.519713 
L 269.924073 236.239798 
L 270.573382 236.681062 
L 272.521309 237.551468 
L 273.170618 237.9006 
L 273.819927 238.113958 
L 275.118545 238.855864 
L 276.417164 239.430477 
L 277.066473 239.88144 
L 278.365091 240.543336 
L 280.313018 241.532543 
L 281.611636 242.148374 
L 283.559564 243.287902 
L 284.858182 243.782506 
L 288.104727 245.14994 
L 288.754036 245.3536 
L 289.403345 245.773044 
L 290.701964 246.209459 
L 293.948509 247.986638 
L 296.545745 249.012214 
L 299.142982 249.994148 
L 301.090909 251.041544 
L 301.740218 251.286421 
L 302.389527 251.725261 
L 303.688145 252.248959 
L 304.986764 252.932676 
L 309.531927 254.845629 
L 310.181236 255.282044 
L 310.830545 255.492978 
L 312.129164 256.145177 
L 312.778473 256.414299 
L 313.427782 256.831318 
L 314.7264 257.304101 
L 315.375709 257.64596 
L 316.025018 258.118743 
L 319.920873 259.653469 
L 323.816727 261.263356 
L 325.764655 262.056177 
L 328.361891 263.239347 
L 331.608436 264.827413 
L 336.1536 266.788856 
L 337.452218 267.2083 
L 339.400145 268.420564 
L 341.348073 269.206111 
L 347.841164 272.040385 
L 351.737018 273.992131 
L 353.035636 274.583716 
L 353.684945 274.995885 
L 354.983564 275.502612 
L 356.931491 276.38514 
L 359.528727 277.781669 
L 361.476655 278.542971 
L 364.7232 280.317725 
L 365.372509 280.52381 
L 366.671127 281.125093 
L 368.619055 281.857301 
L 372.514909 283.525377 
L 373.813527 284.306075 
L 377.709382 286.059009 
L 380.306618 287.601009 
L 381.605236 288.117433 
L 384.202473 289.443651 
L 388.098327 291.390547 
L 390.046255 292.108207 
L 391.344873 292.741009 
L 396.539345 294.651538 
L 398.487273 295.488 
L 398.487273 295.488 
" clip-path="url(#p93228eb413)" style="fill: none; stroke: #92c6ff; stroke-width: 1.5; stroke-linecap: square"/>
   </g>
   <g id="line2d_13">
    <path d="M 73.832727 130.33542 
L 75.131345 130.229681 
L 77.079273 130.116544 
L 78.377891 129.985815 
L 80.325818 129.800888 
L 82.273745 129.58425 
L 86.818909 129.013769 
L 90.714764 127.892729 
L 92.013382 127.658303 
L 97.207855 126.754032 
L 108.895418 125.864647 
L 115.388509 123.865032 
L 117.336436 123.398661 
L 125.128145 121.460694 
L 126.426764 121.123649 
L 127.076073 120.955483 
L 127.725382 120.665347 
L 128.374691 120.549895 
L 129.673309 120.109224 
L 131.621236 119.574291 
L 136.815709 118.489473 
L 138.114327 118.146465 
L 139.412945 117.809156 
L 140.711564 117.499774 
L 143.958109 116.660478 
L 146.555345 116.052109 
L 154.347055 114.015933 
L 155.645673 113.647101 
L 160.840145 112.33088 
L 167.982545 110.917897 
L 171.8784 110.083069 
L 173.177018 109.733204 
L 173.826327 109.466659 
L 175.124945 109.215793 
L 176.423564 108.770081 
L 178.371491 108.286894 
L 183.565964 106.703034 
L 188.760436 105.52493 
L 189.409745 105.403112 
L 190.708364 104.964165 
L 194.604218 104.003231 
L 199.149382 102.898468 
L 199.798691 102.559163 
L 201.097309 102.16059 
L 208.889018 100.099393 
L 210.187636 99.826993 
L 211.486255 99.438392 
L 212.784873 99.108574 
L 213.434182 98.768603 
L 214.083491 98.629314 
L 214.7328 98.289447 
L 234.212073 93.609027 
L 236.16 93.120078 
L 241.354473 91.841688 
L 242.653091 91.47384 
L 245.899636 90.876432 
L 247.847564 90.359386 
L 249.795491 89.95907 
L 254.989964 88.850369 
L 260.833745 87.671583 
L 262.132364 87.206718 
L 276.417164 83.808758 
L 277.066473 83.515864 
L 278.365091 83.157097 
L 280.313018 82.617584 
L 281.611636 82.327731 
L 284.208873 81.567779 
L 292.649891 79.57381 
L 295.247127 78.902588 
L 299.142982 78.225806 
L 301.090909 77.613126 
L 301.740218 77.483748 
L 302.389527 77.186493 
L 304.337455 76.732031 
L 309.531927 75.558193 
L 310.181236 75.254 
L 311.479855 74.939761 
L 315.375709 74.005975 
L 316.025018 73.699325 
L 321.219491 72.719046 
L 321.8688 72.457392 
L 325.115345 71.900077 
L 327.063273 71.380908 
L 328.361891 71.075382 
L 331.608436 70.249278 
L 337.452218 69.102189 
L 339.400145 68.381227 
L 341.997382 67.819523 
L 343.296 67.458525 
L 347.841164 66.465408 
L 354.334255 64.770378 
L 356.931491 64.154137 
L 359.528727 63.331726 
L 362.125964 62.748485 
L 365.372509 61.806506 
L 367.320436 61.376859 
L 369.917673 60.802543 
L 373.164218 59.957311 
L 375.112145 59.454013 
L 377.709382 58.754827 
L 380.306618 57.810455 
L 381.605236 57.526436 
L 382.903855 57.13852 
L 384.202473 56.806998 
L 391.344873 54.9884 
L 397.837964 53.716824 
L 398.487273 53.568 
L 398.487273 53.568 
" clip-path="url(#p93228eb413)" style="fill: none; stroke: #97f0aa; stroke-width: 1.5; stroke-linecap: square"/>
   </g>
   <g id="line2d_14">
    <path d="M 73.832727 130.820326 
L 75.780655 132.15585 
L 79.676509 134.763447 
L 82.273745 136.372929 
L 86.818909 139.196788 
L 88.766836 140.007668 
L 89.416145 140.227239 
L 93.312 142.429097 
L 94.610618 143.095025 
L 99.805091 146.363077 
L 108.895418 152.522338 
L 109.544727 152.803066 
L 111.492655 153.257895 
L 127.725382 157.404227 
L 135.517091 159.739746 
L 136.815709 160.007098 
L 138.114327 160.430241 
L 141.360873 161.320335 
L 142.659491 161.72057 
L 146.555345 162.750952 
L 149.152582 163.496796 
L 151.749818 164.147651 
L 153.697745 164.664508 
L 161.489455 166.734123 
L 163.437382 167.129298 
L 168.631855 168.339842 
L 177.072873 170.274045 
L 180.319418 171.051488 
L 192.006982 173.758519 
L 193.3056 174.061923 
L 195.253527 174.609237 
L 196.552145 174.914187 
L 198.500073 175.395212 
L 206.291782 177.176762 
L 210.836945 178.188172 
L 214.083491 178.941819 
L 215.382109 179.210705 
L 216.680727 179.606678 
L 224.472436 181.50593 
L 229.0176 182.589657 
L 231.614836 183.128856 
L 235.510691 184.039353 
L 242.003782 185.512878 
L 243.951709 185.939679 
L 254.989964 188.246338 
L 264.080291 190.197607 
L 269.924073 191.318531 
L 271.872 191.841182 
L 275.767855 192.694139 
L 289.403345 195.765763 
L 291.351273 196.164204 
L 296.545745 197.304798 
L 301.740218 198.375586 
L 317.972945 201.826522 
L 319.920873 202.227999 
L 323.816727 202.981314 
L 329.0112 204.07567 
L 335.504291 205.587845 
L 341.997382 206.907448 
L 345.243927 207.596314 
L 348.490473 208.273631 
L 356.282182 210.044664 
L 358.230109 210.456103 
L 362.125964 211.255703 
L 366.671127 212.222474 
L 369.268364 212.732703 
L 372.514909 213.377923 
L 388.747636 216.810115 
L 394.591418 217.931223 
L 397.837964 218.521722 
L 398.487273 218.661417 
L 398.487273 218.661417 
" clip-path="url(#p93228eb413)" style="fill: none; stroke: #ff9f9a; stroke-width: 1.5; stroke-linecap: square"/>
   </g>
   <g id="patch_3">
    <path d="M 57.6 307.584 
L 57.6 41.472 
" style="fill: none; stroke: #000000; stroke-width: 0.8; stroke-linejoin: miter; stroke-linecap: square"/>
   </g>
   <g id="patch_4">
    <path d="M 414.72 307.584 
L 414.72 41.472 
" style="fill: none; stroke: #000000; stroke-width: 0.8; stroke-linejoin: miter; stroke-linecap: square"/>
   </g>
   <g id="patch_5">
    <path d="M 57.6 307.584 
L 414.72 307.584 
" style="fill: none; stroke: #000000; stroke-width: 0.8; stroke-linejoin: miter; stroke-linecap: square"/>
   </g>
   <g id="patch_6">
    <path d="M 57.6 41.472 
L 414.72 41.472 
" style="fill: none; stroke: #000000; stroke-width: 0.8; stroke-linejoin: miter; stroke-linecap: square"/>
   </g>
   <g id="text_14">
    <!-- Cumulative reward by type -->
    <g transform="translate(171.036963 35.472) scale(0.12 -0.12)">
     <defs>
      <path id="CMSS17-43" d="M 3501 705 
C 3072 416 2874 332 2355 332 
C 1459 332 934 1304 934 2191 
C 934 3137 1472 4070 2381 4070 
C 2790 4070 3059 3954 3386 3748 
L 3475 4255 
C 3168 4409 2778 4480 2387 4480 
C 1158 4480 397 3343 397 2191 
C 397 924 1299 -77 2323 -77 
C 2874 -77 3066 -32 3539 268 
L 3501 705 
z
" transform="scale(0.015625)"/>
      <path id="CMSS17-75" d="M 2618 2752 
L 2131 2752 
L 2131 976 
C 2131 500 1786 307 1421 307 
C 998 307 960 448 960 712 
L 960 2752 
L 474 2752 
L 474 680 
C 474 179 646 -64 1088 -64 
C 1306 -64 1798 -13 2144 307 
L 2144 -13 
L 2618 -13 
L 2618 2752 
z
" transform="scale(0.015625)"/>
      <path id="CMSS17-6d" d="M 4288 1878 
C 4288 2309 4179 2816 3462 2816 
C 2982 2816 2694 2515 2566 2328 
C 2451 2668 2182 2816 1798 2816 
C 1363 2816 1088 2566 941 2386 
L 941 2783 
L 474 2783 
L 474 0 
L 960 0 
L 960 1556 
C 960 1936 1101 2425 1555 2425 
C 2138 2425 2138 2013 2138 1826 
L 2138 0 
L 2624 0 
L 2624 1556 
C 2624 1936 2765 2425 3219 2425 
C 3802 2425 3802 2013 3802 1826 
L 3802 0 
L 4288 0 
L 4288 1878 
z
" transform="scale(0.015625)"/>
      <path id="CMSS17-6c" d="M 947 4416 
L 474 4416 
L 474 0 
L 947 0 
L 947 4416 
z
" transform="scale(0.015625)"/>
      <path id="CMSS17-74" d="M 1069 2380 
L 1901 2380 
L 1901 2752 
L 1069 2752 
L 1069 3520 
L 614 3520 
L 614 2752 
L 109 2752 
L 109 2380 
L 602 2380 
L 602 751 
C 602 384 685 -64 1107 -64 
C 1427 -64 1722 25 2003 172 
L 1901 551 
C 1747 416 1562 339 1363 339 
C 1082 339 1069 699 1069 860 
L 1069 2380 
z
" transform="scale(0.015625)"/>
      <path id="CMSS17-76" d="M 2675 2752 
L 2176 2752 
L 1747 1555 
C 1613 1164 1421 627 1389 352 
L 1382 352 
C 1370 467 1318 633 1286 748 
C 1248 889 1197 1056 1158 1171 
L 595 2752 
L 83 2752 
L 1094 0 
L 1664 0 
L 2675 2752 
z
" transform="scale(0.015625)"/>
      <path id="CMSS17-62" d="M 954 4416 
L 480 4416 
L 480 -13 
L 966 -13 
L 966 275 
C 1210 38 1504 -64 1766 -64 
C 2381 -64 2880 559 2880 1382 
C 2880 2133 2496 2816 1926 2816 
C 1523 2816 1165 2649 954 2476 
L 954 4416 
z
M 966 2095 
C 1107 2276 1306 2425 1587 2425 
C 1965 2425 2394 2146 2394 1382 
C 2394 566 1882 326 1530 326 
C 1402 326 1267 358 1139 468 
C 966 624 966 721 966 812 
L 966 2095 
z
" transform="scale(0.015625)"/>
      <path id="CMSS17-79" d="M 2675 2752 
L 2176 2752 
C 1632 1293 1446 701 1434 383 
L 1427 383 
C 1408 695 1126 1459 902 2006 
L 602 2752 
L 83 2752 
L 1216 14 
C 1146 -177 1043 -464 1011 -527 
C 870 -884 774 -884 672 -884 
C 646 -884 442 -877 211 -807 
L 250 -1229 
C 410 -1261 570 -1280 685 -1280 
C 845 -1280 1165 -1280 1459 -495 
L 2675 2752 
z
" transform="scale(0.015625)"/>
     </defs>
     <use xlink:href="#CMSS17-43" transform="scale(0.996264)"/>
     <use xlink:href="#CMSS17-75" transform="translate(59.855772 0) scale(0.996264)"/>
     <use xlink:href="#CMSS17-6d" transform="translate(108.060715 0) scale(0.996264)"/>
     <use xlink:href="#CMSS17-75" transform="translate(182.289969 0) scale(0.996264)"/>
     <use xlink:href="#CMSS17-6c" transform="translate(230.494912 0) scale(0.996264)"/>
     <use xlink:href="#CMSS17-61" transform="translate(252.675635 0) scale(0.996264)"/>
     <use xlink:href="#CMSS17-74" transform="translate(297.597556 0) scale(0.996264)"/>
     <use xlink:href="#CMSS17-69" transform="translate(331.429123 0) scale(0.996264)"/>
     <use xlink:href="#CMSS17-76" transform="translate(353.609846 0) scale(0.996264)"/>
     <use xlink:href="#CMSS17-65" transform="translate(396.609987 0) scale(0.996264)"/>
     <use xlink:href="#CMSS17-72" transform="translate(469.477922 0) scale(0.996264)"/>
     <use xlink:href="#CMSS17-65" transform="translate(501.387695 0) scale(0.996264)"/>
     <use xlink:href="#CMSS17-77" transform="translate(543.026517 0) scale(0.996264)"/>
     <use xlink:href="#CMSS17-61" transform="translate(604.243608 0) scale(0.996264)"/>
     <use xlink:href="#CMSS17-72" transform="translate(646.563075 0) scale(0.996264)"/>
     <use xlink:href="#CMSS17-64" transform="translate(678.472847 0) scale(0.996264)"/>
     <use xlink:href="#CMSS17-62" transform="translate(757.906903 0) scale(0.996264)"/>
     <use xlink:href="#CMSS17-79" transform="translate(803.509392 0) scale(0.996264)"/>
     <use xlink:href="#CMSS17-74" transform="translate(877.738647 0) scale(0.996264)"/>
     <use xlink:href="#CMSS17-79" transform="translate(908.967759 0) scale(0.996264)"/>
     <use xlink:href="#CMSS17-70" transform="translate(951.967901 0) scale(0.996264)"/>
     <use xlink:href="#CMSS17-65" transform="translate(1002.775283 0) scale(0.996264)"/>
    </g>
   </g>
   <g id="legend_1">
    <g id="patch_7">
     <path d="M 66 101.245787 
L 166.015363 101.245787 
Q 168.415363 101.245787 168.415363 98.845787 
L 168.415363 49.872 
Q 168.415363 47.472 166.015363 47.472 
L 66 47.472 
Q 63.6 47.472 63.6 49.872 
L 63.6 98.845787 
Q 63.6 101.245787 66 101.245787 
z
" style="fill: #ffffff; opacity: 0.8; stroke: #cccccc; stroke-linejoin: miter"/>
    </g>
    <g id="line2d_15">
     <path d="M 68.4 56.472 
L 80.4 56.472 
L 92.4 56.472 
" style="fill: none; stroke: #92c6ff; stroke-width: 1.5; stroke-linecap: square"/>
    </g>
    <g id="text_15">
     <!-- Environment -->
     <g transform="translate(102 60.672) scale(0.12 -0.12)">
      <defs>
       <path id="CMSS17-6e" d="M 2618 1878 
C 2618 2283 2522 2816 1798 2816 
C 1389 2816 1120 2604 941 2386 
L 941 2783 
L 474 2783 
L 474 0 
L 960 0 
L 960 1556 
C 960 1962 1114 2425 1549 2425 
C 2112 2425 2131 2045 2131 1826 
L 2131 0 
L 2618 0 
L 2618 1878 
z
" transform="scale(0.015625)"/>
      </defs>
      <use xlink:href="#CMSS17-45" transform="scale(0.996264)"/>
      <use xlink:href="#CMSS17-6e" transform="translate(55.892013 0) scale(0.996264)"/>
      <use xlink:href="#CMSS17-76" transform="translate(104.096956 0) scale(0.996264)"/>
      <use xlink:href="#CMSS17-69" transform="translate(147.097098 0) scale(0.996264)"/>
      <use xlink:href="#CMSS17-72" transform="translate(169.277821 0) scale(0.996264)"/>
      <use xlink:href="#CMSS17-6f" transform="translate(201.187594 0) scale(0.996264)"/>
      <use xlink:href="#CMSS17-6e" transform="translate(248.031217 0) scale(0.996264)"/>
      <use xlink:href="#CMSS17-6d" transform="translate(296.23616 0) scale(0.996264)"/>
      <use xlink:href="#CMSS17-65" transform="translate(370.465415 0) scale(0.996264)"/>
      <use xlink:href="#CMSS17-6e" transform="translate(412.104237 0) scale(0.996264)"/>
      <use xlink:href="#CMSS17-74" transform="translate(460.30918 0) scale(0.996264)"/>
     </g>
    </g>
    <g id="line2d_16">
     <path d="M 68.4 73.196596 
L 80.4 73.196596 
L 92.4 73.196596 
" style="fill: none; stroke: #97f0aa; stroke-width: 1.5; stroke-linecap: square"/>
    </g>
    <g id="text_16">
     <!-- Heuristic -->
     <g transform="translate(102 77.396596) scale(0.12 -0.12)">
      <defs>
       <path id="CMSS17-48" d="M 3674 4416 
L 3136 4416 
L 3136 2496 
L 1101 2496 
L 1101 4416 
L 563 4416 
L 563 0 
L 1101 0 
L 1101 2105 
L 3136 2105 
L 3136 0 
L 3674 0 
L 3674 4416 
z
" transform="scale(0.015625)"/>
       <path id="CMSS17-63" d="M 2464 2540 
C 2464 2585 2170 2713 2093 2739 
C 1882 2816 1613 2816 1542 2816 
C 710 2816 211 2092 211 1363 
C 211 595 768 -64 1517 -64 
C 1946 -64 2253 76 2502 243 
L 2464 665 
C 2189 454 1869 339 1523 339 
C 1024 339 698 774 698 1369 
C 698 1830 909 2412 1549 2412 
C 1901 2412 2099 2342 2394 2143 
L 2464 2540 
z
" transform="scale(0.015625)"/>
      </defs>
      <use xlink:href="#CMSS17-48" transform="scale(0.996264)"/>
      <use xlink:href="#CMSS17-65" transform="translate(66.061519 0) scale(0.996264)"/>
      <use xlink:href="#CMSS17-75" transform="translate(107.700341 0) scale(0.996264)"/>
      <use xlink:href="#CMSS17-72" transform="translate(155.905284 0) scale(0.996264)"/>
      <use xlink:href="#CMSS17-69" transform="translate(187.815057 0) scale(0.996264)"/>
      <use xlink:href="#CMSS17-73" transform="translate(209.99578 0) scale(0.996264)"/>
      <use xlink:href="#CMSS17-74" transform="translate(245.909322 0) scale(0.996264)"/>
      <use xlink:href="#CMSS17-69" transform="translate(279.740889 0) scale(0.996264)"/>
      <use xlink:href="#CMSS17-63" transform="translate(301.921612 0) scale(0.996264)"/>
     </g>
    </g>
    <g id="line2d_17">
     <path d="M 68.4 89.921192 
L 80.4 89.921192 
L 92.4 89.921192 
" style="fill: none; stroke: #ff9f9a; stroke-width: 1.5; stroke-linecap: square"/>
    </g>
    <g id="text_17">
     <!-- Total -->
     <g transform="translate(102 94.121192) scale(0.12 -0.12)">
      <defs>
       <path id="CMSS17-54" d="M 2317 3987 
L 2848 3987 
C 2925 3987 3002 3980 3078 3980 
L 3878 3980 
L 3878 4396 
L 218 4396 
L 218 3980 
L 1018 3980 
C 1094 3980 1171 3987 1248 3987 
L 1779 3987 
L 1779 0 
L 2317 0 
L 2317 3987 
z
" transform="scale(0.015625)"/>
      </defs>
      <use xlink:href="#CMSS17-54" transform="scale(0.996264)"/>
      <use xlink:href="#CMSS17-6f" transform="translate(56.012199 0) scale(0.996264)"/>
      <use xlink:href="#CMSS17-74" transform="translate(102.855822 0) scale(0.996264)"/>
      <use xlink:href="#CMSS17-61" transform="translate(136.687389 0) scale(0.996264)"/>
      <use xlink:href="#CMSS17-6c" transform="translate(181.609309 0) scale(0.996264)"/>
     </g>
    </g>
   </g>
  </g>
 </g>
 <defs>
  <clipPath id="p93228eb413">
   <rect x="57.6" y="41.472" width="357.12" height="266.112"/>
  </clipPath>
 </defs>
</svg>
