<?xml version="1.0" encoding="utf-8" standalone="no"?>
<!DOCTYPE svg PUBLIC "-//W3C//DTD SVG 1.1//EN"
  "http://www.w3.org/Graphics/SVG/1.1/DTD/svg11.dtd">
<svg xmlns:xlink="http://www.w3.org/1999/xlink" width="460.8pt" height="345.6pt" viewBox="0 0 460.8 345.6" xmlns="http://www.w3.org/2000/svg" version="1.1">
 <metadata>
  <rdf:RDF xmlns:dc="http://purl.org/dc/elements/1.1/" xmlns:cc="http://creativecommons.org/ns#" xmlns:rdf="http://www.w3.org/1999/02/22-rdf-syntax-ns#">
   <cc:Work>
    <dc:type rdf:resource="http://purl.org/dc/dcmitype/StillImage"/>
    <dc:date>2024-05-27T10:20:43.958591</dc:date>
    <dc:format>image/svg+xml</dc:format>
    <dc:creator>
     <cc:Agent>
      <dc:title>Matplotlib v3.8.0, https://matplotlib.org/</dc:title>
     </cc:Agent>
    </dc:creator>
   </cc:Work>
  </rdf:RDF>
 </metadata>
 <defs>
  <style type="text/css">*{stroke-linejoin: round; stroke-linecap: butt}</style>
 </defs>
 <g id="figure_1">
  <g id="patch_1">
   <path d="M 0 345.6 
L 460.8 345.6 
L 460.8 0 
L 0 0 
z
" style="fill: #ffffff"/>
  </g>
  <g id="axes_1">
   <g id="patch_2">
    <path d="M 57.6 307.584 
L 414.72 307.584 
L 414.72 41.472 
L 57.6 41.472 
z
" style="fill: #ffffff"/>
   </g>
   <g id="matplotlib.axis_1">
    <g id="xtick_1">
     <g id="line2d_1">
      <defs>
       <path id="mca870a5171" d="M 0 0 
L 0 3.5 
" style="stroke: #000000; stroke-width: 0.8"/>
      </defs>
      <g>
       <use xlink:href="#mca870a5171" x="73.832727" y="307.584" style="stroke: #000000; stroke-width: 0.8"/>
      </g>
     </g>
     <g id="text_1">
      <!-- $\mathdefault{0}$ -->
      <g transform="translate(70.906232 322.88618) scale(0.12 -0.12)">
       <defs>
        <path id="CMR17-30" d="M 2688 2038 
C 2688 2430 2682 3099 2413 3613 
C 2176 4063 1798 4224 1466 4224 
C 1158 4224 768 4082 525 3620 
C 269 3137 243 2539 243 2038 
C 243 1671 250 1112 448 623 
C 723 -39 1216 -128 1466 -128 
C 1760 -128 2208 -7 2470 604 
C 2662 1048 2688 1568 2688 2038 
z
M 1466 -26 
C 1056 -26 813 328 723 816 
C 653 1196 653 1749 653 2109 
C 653 2604 653 3015 736 3407 
C 858 3954 1216 4121 1466 4121 
C 1728 4121 2067 3947 2189 3420 
C 2272 3054 2278 2623 2278 2109 
C 2278 1691 2278 1176 2202 797 
C 2067 96 1690 -26 1466 -26 
z
" transform="scale(0.015625)"/>
       </defs>
       <use xlink:href="#CMR17-30" transform="scale(0.996264)"/>
      </g>
     </g>
    </g>
    <g id="xtick_2">
     <g id="line2d_2">
      <g>
       <use xlink:href="#mca870a5171" x="127.959861" y="307.584" style="stroke: #000000; stroke-width: 0.8"/>
      </g>
     </g>
     <g id="text_2">
      <!-- $\mathdefault{500}$ -->
      <g transform="translate(119.180375 322.88618) scale(0.12 -0.12)">
       <defs>
        <path id="CMR17-35" d="M 730 3750 
C 794 3724 1056 3641 1325 3641 
C 1920 3641 2246 3961 2432 4140 
C 2432 4191 2432 4224 2394 4224 
C 2387 4224 2374 4224 2323 4198 
C 2099 4102 1837 4032 1517 4032 
C 1325 4032 1037 4055 723 4191 
C 653 4224 640 4224 634 4224 
C 602 4224 595 4217 595 4090 
L 595 2231 
C 595 2113 595 2080 659 2080 
C 691 2080 704 2093 736 2139 
C 941 2435 1222 2560 1542 2560 
C 1766 2560 2246 2415 2246 1293 
C 2246 1087 2246 716 2054 422 
C 1894 159 1645 25 1370 25 
C 947 25 518 319 403 812 
C 429 806 480 793 506 793 
C 589 793 749 838 749 1036 
C 749 1209 627 1280 506 1280 
C 358 1280 262 1190 262 1011 
C 262 454 704 -128 1382 -128 
C 2042 -128 2669 441 2669 1267 
C 2669 2054 2170 2662 1549 2662 
C 1222 2662 947 2540 730 2304 
L 730 3750 
z
" transform="scale(0.015625)"/>
       </defs>
       <use xlink:href="#CMR17-35" transform="scale(0.996264)"/>
       <use xlink:href="#CMR17-30" transform="translate(45.690477 0) scale(0.996264)"/>
       <use xlink:href="#CMR17-30" transform="translate(91.380954 0) scale(0.996264)"/>
      </g>
     </g>
    </g>
    <g id="xtick_3">
     <g id="line2d_3">
      <g>
       <use xlink:href="#mca870a5171" x="182.086994" y="307.584" style="stroke: #000000; stroke-width: 0.8"/>
      </g>
     </g>
     <g id="text_3">
      <!-- $\mathdefault{1000}$ -->
      <g transform="translate(170.381013 322.88618) scale(0.12 -0.12)">
       <defs>
        <path id="CMR17-31" d="M 1702 4083 
C 1702 4217 1696 4224 1606 4224 
C 1357 3927 979 3833 621 3820 
C 602 3820 570 3820 563 3808 
C 557 3795 557 3782 557 3648 
C 755 3648 1088 3686 1344 3839 
L 1344 467 
C 1344 243 1331 166 781 166 
L 589 166 
L 589 0 
C 896 6 1216 12 1523 12 
C 1830 12 2150 6 2458 0 
L 2458 166 
L 2266 166 
C 1715 166 1702 236 1702 467 
L 1702 4083 
z
" transform="scale(0.015625)"/>
       </defs>
       <use xlink:href="#CMR17-31" transform="scale(0.996264)"/>
       <use xlink:href="#CMR17-30" transform="translate(45.690477 0) scale(0.996264)"/>
       <use xlink:href="#CMR17-30" transform="translate(91.380954 0) scale(0.996264)"/>
       <use xlink:href="#CMR17-30" transform="translate(137.071431 0) scale(0.996264)"/>
      </g>
     </g>
    </g>
    <g id="xtick_4">
     <g id="line2d_4">
      <g>
       <use xlink:href="#mca870a5171" x="236.214127" y="307.584" style="stroke: #000000; stroke-width: 0.8"/>
      </g>
     </g>
     <g id="text_4">
      <!-- $\mathdefault{1500}$ -->
      <g transform="translate(224.508147 322.88618) scale(0.12 -0.12)">
       <use xlink:href="#CMR17-31" transform="scale(0.996264)"/>
       <use xlink:href="#CMR17-35" transform="translate(45.690477 0) scale(0.996264)"/>
       <use xlink:href="#CMR17-30" transform="translate(91.380954 0) scale(0.996264)"/>
       <use xlink:href="#CMR17-30" transform="translate(137.071431 0) scale(0.996264)"/>
      </g>
     </g>
    </g>
    <g id="xtick_5">
     <g id="line2d_5">
      <g>
       <use xlink:href="#mca870a5171" x="290.34126" y="307.584" style="stroke: #000000; stroke-width: 0.8"/>
      </g>
     </g>
     <g id="text_5">
      <!-- $\mathdefault{2000}$ -->
      <g transform="translate(278.63528 322.88618) scale(0.12 -0.12)">
       <defs>
        <path id="CMR17-32" d="M 2669 990 
L 2554 990 
C 2490 537 2438 460 2413 422 
C 2381 371 1920 371 1830 371 
L 602 371 
C 832 620 1280 1073 1824 1596 
C 2214 1966 2669 2400 2669 3033 
C 2669 3788 2067 4224 1395 4224 
C 691 4224 262 3603 262 3027 
C 262 2777 448 2745 525 2745 
C 589 2745 781 2783 781 3007 
C 781 3206 614 3264 525 3264 
C 486 3264 448 3257 422 3244 
C 544 3788 915 4057 1306 4057 
C 1862 4057 2227 3616 2227 3033 
C 2227 2477 1901 1998 1536 1583 
L 262 147 
L 262 0 
L 2515 0 
L 2669 990 
z
" transform="scale(0.015625)"/>
       </defs>
       <use xlink:href="#CMR17-32" transform="scale(0.996264)"/>
       <use xlink:href="#CMR17-30" transform="translate(45.690477 0) scale(0.996264)"/>
       <use xlink:href="#CMR17-30" transform="translate(91.380954 0) scale(0.996264)"/>
       <use xlink:href="#CMR17-30" transform="translate(137.071431 0) scale(0.996264)"/>
      </g>
     </g>
    </g>
    <g id="xtick_6">
     <g id="line2d_6">
      <g>
       <use xlink:href="#mca870a5171" x="344.468394" y="307.584" style="stroke: #000000; stroke-width: 0.8"/>
      </g>
     </g>
     <g id="text_6">
      <!-- $\mathdefault{2500}$ -->
      <g transform="translate(332.762413 322.88618) scale(0.12 -0.12)">
       <use xlink:href="#CMR17-32" transform="scale(0.996264)"/>
       <use xlink:href="#CMR17-35" transform="translate(45.690477 0) scale(0.996264)"/>
       <use xlink:href="#CMR17-30" transform="translate(91.380954 0) scale(0.996264)"/>
       <use xlink:href="#CMR17-30" transform="translate(137.071431 0) scale(0.996264)"/>
      </g>
     </g>
    </g>
    <g id="xtick_7">
     <g id="line2d_7">
      <g>
       <use xlink:href="#mca870a5171" x="398.595527" y="307.584" style="stroke: #000000; stroke-width: 0.8"/>
      </g>
     </g>
     <g id="text_7">
      <!-- $\mathdefault{3000}$ -->
      <g transform="translate(386.889546 322.88618) scale(0.12 -0.12)">
       <defs>
        <path id="CMR17-33" d="M 1414 2176 
C 1984 2176 2234 1673 2234 1094 
C 2234 322 1824 25 1453 25 
C 1114 25 563 193 390 691 
C 422 678 454 678 486 678 
C 640 678 755 780 755 947 
C 755 1132 614 1216 486 1216 
C 378 1216 211 1164 211 927 
C 211 335 787 -128 1466 -128 
C 2176 -128 2720 432 2720 1087 
C 2720 1718 2208 2176 1600 2246 
C 2086 2347 2554 2776 2554 3353 
C 2554 3856 2048 4224 1472 4224 
C 890 4224 378 3862 378 3347 
C 378 3123 544 3084 627 3084 
C 762 3084 877 3167 877 3334 
C 877 3500 762 3584 627 3584 
C 602 3584 570 3584 544 3571 
C 730 3999 1235 4076 1459 4076 
C 1683 4076 2106 3966 2106 3347 
C 2106 3167 2080 2851 1862 2574 
C 1670 2329 1453 2316 1242 2297 
C 1210 2297 1062 2284 1037 2284 
C 992 2278 966 2272 966 2227 
C 966 2182 973 2176 1101 2176 
L 1414 2176 
z
" transform="scale(0.015625)"/>
       </defs>
       <use xlink:href="#CMR17-33" transform="scale(0.996264)"/>
       <use xlink:href="#CMR17-30" transform="translate(45.690477 0) scale(0.996264)"/>
       <use xlink:href="#CMR17-30" transform="translate(91.380954 0) scale(0.996264)"/>
       <use xlink:href="#CMR17-30" transform="translate(137.071431 0) scale(0.996264)"/>
      </g>
     </g>
    </g>
    <g id="text_8">
     <!-- Episode -->
     <g transform="translate(217.357143 337.512955) scale(0.12 -0.12)">
      <defs>
       <path id="CMSS17-45" d="M 1958 435 
C 1446 435 1216 435 1101 428 
L 1101 2105 
L 3085 2105 
L 3085 2496 
L 1101 2496 
L 1101 3993 
L 1926 3993 
C 2003 3993 2080 3987 2157 3987 
L 3251 3987 
L 3251 4403 
L 563 4403 
L 563 0 
L 3334 0 
L 3334 441 
L 1958 435 
z
" transform="scale(0.015625)"/>
       <path id="CMSS17-70" d="M 966 275 
C 1178 70 1466 -64 1773 -64 
C 2368 -64 2880 553 2880 1382 
C 2880 2147 2496 2816 1946 2816 
C 1626 2816 1242 2700 954 2470 
L 954 2764 
L 480 2764 
L 480 -1280 
L 966 -1280 
L 966 275 
z
M 966 2088 
C 1018 2166 1235 2412 1587 2412 
C 2035 2412 2394 1946 2394 1382 
C 2394 741 1958 326 1530 326 
C 1402 326 1267 358 1139 468 
C 966 624 966 721 966 812 
L 966 2088 
z
" transform="scale(0.015625)"/>
       <path id="CMSS17-69" d="M 979 4224 
L 442 4224 
L 442 3686 
L 979 3686 
L 979 4224 
z
M 947 2752 
L 474 2752 
L 474 0 
L 947 0 
L 947 2752 
z
" transform="scale(0.015625)"/>
       <path id="CMSS17-73" d="M 2061 2623 
C 1683 2803 1389 2816 1197 2816 
C 742 2816 198 2655 198 2009 
C 198 1363 902 1222 1094 1183 
C 1389 1126 1715 1062 1715 742 
C 1715 339 1254 339 1171 339 
C 915 339 563 409 243 639 
L 166 211 
C 531 0 883 -64 1178 -64 
C 1965 -64 2163 416 2163 780 
C 2163 1094 1984 1305 1862 1401 
C 1651 1567 1574 1587 1050 1695 
C 960 1708 646 1779 646 2067 
C 646 2431 1050 2431 1139 2431 
C 1555 2431 1811 2303 1984 2207 
L 2061 2623 
z
" transform="scale(0.015625)"/>
       <path id="CMSS17-6f" d="M 2829 1356 
C 2829 2175 2221 2816 1504 2816 
C 768 2816 173 2156 173 1356 
C 173 544 787 -64 1498 -64 
C 2227 -64 2829 563 2829 1356 
z
M 1504 339 
C 1050 339 659 710 659 1407 
C 659 2150 1114 2425 1498 2425 
C 1914 2425 2342 2124 2342 1407 
C 2342 684 1926 339 1504 339 
z
" transform="scale(0.015625)"/>
       <path id="CMSS17-64" d="M 2611 4416 
L 2138 4416 
L 2138 2495 
C 1939 2662 1613 2816 1254 2816 
C 672 2816 211 2179 211 1375 
C 211 572 666 -64 1235 -64 
C 1677 -64 1971 172 2125 307 
L 2125 -13 
L 2611 -13 
L 2611 4416 
z
M 2125 851 
C 2125 760 2125 663 1926 488 
C 1798 378 1645 326 1498 326 
C 1152 326 698 585 698 1369 
C 698 2185 1210 2425 1562 2425 
C 1798 2425 1990 2308 2125 2114 
L 2125 851 
z
" transform="scale(0.015625)"/>
       <path id="CMSS17-65" d="M 2502 1375 
C 2502 1587 2490 2001 2285 2347 
C 2061 2713 1696 2816 1421 2816 
C 755 2816 192 2184 192 1363 
C 192 579 774 -64 1510 -64 
C 1798 -64 2150 19 2470 249 
C 2470 275 2458 414 2451 421 
C 2451 433 2432 629 2432 655 
C 2125 408 1773 326 1517 326 
C 1107 326 666 667 646 1375 
L 2502 1375 
z
M 698 1728 
C 781 2086 1062 2425 1421 2425 
C 1517 2425 1965 2412 2080 1728 
L 698 1728 
z
" transform="scale(0.015625)"/>
      </defs>
      <use xlink:href="#CMSS17-45" transform="scale(0.996264)"/>
      <use xlink:href="#CMSS17-70" transform="translate(55.892013 0) scale(0.996264)"/>
      <use xlink:href="#CMSS17-69" transform="translate(104.096956 0) scale(0.996264)"/>
      <use xlink:href="#CMSS17-73" transform="translate(126.277679 0) scale(0.996264)"/>
      <use xlink:href="#CMSS17-6f" transform="translate(162.191221 0) scale(0.996264)"/>
      <use xlink:href="#CMSS17-64" transform="translate(211.637284 0) scale(0.996264)"/>
      <use xlink:href="#CMSS17-65" transform="translate(259.842227 0) scale(0.996264)"/>
     </g>
    </g>
   </g>
   <g id="matplotlib.axis_2">
    <g id="ytick_1">
     <g id="line2d_8">
      <defs>
       <path id="mcd39996ffa" d="M 0 0 
L -3.5 0 
" style="stroke: #000000; stroke-width: 0.8"/>
      </defs>
      <g>
       <use xlink:href="#mcd39996ffa" x="57.6" y="307.09765" style="stroke: #000000; stroke-width: 0.8"/>
      </g>
     </g>
     <g id="text_9">
      <!-- $\mathdefault{120}$ -->
      <g transform="translate(33.041029 311.24874) scale(0.12 -0.12)">
       <use xlink:href="#CMR17-31" transform="scale(0.996264)"/>
       <use xlink:href="#CMR17-32" transform="translate(45.690477 0) scale(0.996264)"/>
       <use xlink:href="#CMR17-30" transform="translate(91.380954 0) scale(0.996264)"/>
      </g>
     </g>
    </g>
    <g id="ytick_2">
     <g id="line2d_9">
      <g>
       <use xlink:href="#mcd39996ffa" x="57.6" y="275.406444" style="stroke: #000000; stroke-width: 0.8"/>
      </g>
     </g>
     <g id="text_10">
      <!-- $\mathdefault{130}$ -->
      <g transform="translate(33.041029 279.557533) scale(0.12 -0.12)">
       <use xlink:href="#CMR17-31" transform="scale(0.996264)"/>
       <use xlink:href="#CMR17-33" transform="translate(45.690477 0) scale(0.996264)"/>
       <use xlink:href="#CMR17-30" transform="translate(91.380954 0) scale(0.996264)"/>
      </g>
     </g>
    </g>
    <g id="ytick_3">
     <g id="line2d_10">
      <g>
       <use xlink:href="#mcd39996ffa" x="57.6" y="243.715237" style="stroke: #000000; stroke-width: 0.8"/>
      </g>
     </g>
     <g id="text_11">
      <!-- $\mathdefault{140}$ -->
      <g transform="translate(33.041029 247.866327) scale(0.12 -0.12)">
       <defs>
        <path id="CMR17-34" d="M 2150 4147 
C 2150 4281 2144 4288 2029 4288 
L 128 1254 
L 128 1088 
L 1779 1088 
L 1779 460 
C 1779 230 1766 166 1318 166 
L 1197 166 
L 1197 0 
C 1402 12 1747 12 1965 12 
C 2182 12 2528 12 2733 0 
L 2733 166 
L 2611 166 
C 2163 166 2150 230 2150 460 
L 2150 1088 
L 2803 1088 
L 2803 1254 
L 2150 1254 
L 2150 4147 
z
M 1798 3723 
L 1798 1254 
L 256 1254 
L 1798 3723 
z
" transform="scale(0.015625)"/>
       </defs>
       <use xlink:href="#CMR17-31" transform="scale(0.996264)"/>
       <use xlink:href="#CMR17-34" transform="translate(45.690477 0) scale(0.996264)"/>
       <use xlink:href="#CMR17-30" transform="translate(91.380954 0) scale(0.996264)"/>
      </g>
     </g>
    </g>
    <g id="ytick_4">
     <g id="line2d_11">
      <g>
       <use xlink:href="#mcd39996ffa" x="57.6" y="212.024031" style="stroke: #000000; stroke-width: 0.8"/>
      </g>
     </g>
     <g id="text_12">
      <!-- $\mathdefault{150}$ -->
      <g transform="translate(33.041029 216.175121) scale(0.12 -0.12)">
       <use xlink:href="#CMR17-31" transform="scale(0.996264)"/>
       <use xlink:href="#CMR17-35" transform="translate(45.690477 0) scale(0.996264)"/>
       <use xlink:href="#CMR17-30" transform="translate(91.380954 0) scale(0.996264)"/>
      </g>
     </g>
    </g>
    <g id="ytick_5">
     <g id="line2d_12">
      <g>
       <use xlink:href="#mcd39996ffa" x="57.6" y="180.332825" style="stroke: #000000; stroke-width: 0.8"/>
      </g>
     </g>
     <g id="text_13">
      <!-- $\mathdefault{160}$ -->
      <g transform="translate(33.041029 184.483915) scale(0.12 -0.12)">
       <defs>
        <path id="CMR17-36" d="M 678 2198 
C 678 3712 1395 4076 1811 4076 
C 1946 4076 2272 4049 2400 3782 
C 2298 3782 2106 3782 2106 3558 
C 2106 3385 2246 3328 2336 3328 
C 2394 3328 2566 3353 2566 3571 
C 2566 3987 2246 4224 1805 4224 
C 1043 4224 243 3411 243 2011 
C 243 257 966 -128 1478 -128 
C 2099 -128 2688 431 2688 1295 
C 2688 2101 2170 2688 1517 2688 
C 1126 2688 838 2430 678 1979 
L 678 2198 
z
M 1478 25 
C 691 25 691 1212 691 1450 
C 691 1914 909 2585 1504 2585 
C 1613 2585 1926 2585 2138 2140 
C 2253 1889 2253 1624 2253 1302 
C 2253 954 2253 696 2118 438 
C 1978 173 1773 25 1478 25 
z
" transform="scale(0.015625)"/>
       </defs>
       <use xlink:href="#CMR17-31" transform="scale(0.996264)"/>
       <use xlink:href="#CMR17-36" transform="translate(45.690477 0) scale(0.996264)"/>
       <use xlink:href="#CMR17-30" transform="translate(91.380954 0) scale(0.996264)"/>
      </g>
     </g>
    </g>
    <g id="ytick_6">
     <g id="line2d_13">
      <g>
       <use xlink:href="#mcd39996ffa" x="57.6" y="148.641619" style="stroke: #000000; stroke-width: 0.8"/>
      </g>
     </g>
     <g id="text_14">
      <!-- $\mathdefault{170}$ -->
      <g transform="translate(33.041029 152.792709) scale(0.12 -0.12)">
       <defs>
        <path id="CMR17-37" d="M 2886 3955 
L 2886 4096 
L 1382 4096 
C 634 4096 621 4166 595 4288 
L 480 4288 
L 294 3104 
L 410 3104 
C 429 3226 474 3552 550 3673 
C 589 3724 1062 3724 1171 3724 
L 2579 3724 
L 1869 2670 
C 1395 1961 1069 1003 1069 166 
C 1069 89 1069 -128 1299 -128 
C 1530 -128 1530 89 1530 172 
L 1530 466 
C 1530 1514 1709 2204 2003 2644 
L 2886 3955 
z
" transform="scale(0.015625)"/>
       </defs>
       <use xlink:href="#CMR17-31" transform="scale(0.996264)"/>
       <use xlink:href="#CMR17-37" transform="translate(45.690477 0) scale(0.996264)"/>
       <use xlink:href="#CMR17-30" transform="translate(91.380954 0) scale(0.996264)"/>
      </g>
     </g>
    </g>
    <g id="ytick_7">
     <g id="line2d_14">
      <g>
       <use xlink:href="#mcd39996ffa" x="57.6" y="116.950412" style="stroke: #000000; stroke-width: 0.8"/>
      </g>
     </g>
     <g id="text_15">
      <!-- $\mathdefault{180}$ -->
      <g transform="translate(33.041029 121.101502) scale(0.12 -0.12)">
       <defs>
        <path id="CMR17-38" d="M 1741 2289 
C 2144 2494 2554 2803 2554 3298 
C 2554 3884 1990 4224 1472 4224 
C 890 4224 378 3800 378 3215 
C 378 3054 416 2777 666 2533 
C 730 2469 998 2276 1171 2154 
C 883 2006 211 1652 211 945 
C 211 282 838 -128 1459 -128 
C 2144 -128 2720 366 2720 1022 
C 2720 1607 2330 1877 2074 2051 
L 1741 2289 
z
M 902 2855 
C 851 2887 595 3086 595 3388 
C 595 3781 998 4076 1459 4076 
C 1965 4076 2336 3716 2336 3298 
C 2336 2700 1670 2359 1638 2359 
C 1632 2359 1626 2359 1574 2398 
L 902 2855 
z
M 2080 1536 
C 2176 1466 2483 1253 2483 861 
C 2483 385 2010 25 1472 25 
C 890 25 448 443 448 951 
C 448 1459 838 1884 1280 2083 
L 2080 1536 
z
" transform="scale(0.015625)"/>
       </defs>
       <use xlink:href="#CMR17-31" transform="scale(0.996264)"/>
       <use xlink:href="#CMR17-38" transform="translate(45.690477 0) scale(0.996264)"/>
       <use xlink:href="#CMR17-30" transform="translate(91.380954 0) scale(0.996264)"/>
      </g>
     </g>
    </g>
    <g id="ytick_8">
     <g id="line2d_15">
      <g>
       <use xlink:href="#mcd39996ffa" x="57.6" y="85.259206" style="stroke: #000000; stroke-width: 0.8"/>
      </g>
     </g>
     <g id="text_16">
      <!-- $\mathdefault{190}$ -->
      <g transform="translate(33.041029 89.410296) scale(0.12 -0.12)">
       <defs>
        <path id="CMR17-39" d="M 2253 1871 
C 2253 448 1670 25 1190 25 
C 1043 25 685 43 538 281 
C 704 256 826 345 826 505 
C 826 678 685 736 595 736 
C 538 736 365 710 365 492 
C 365 68 742 -128 1203 -128 
C 1939 -128 2688 665 2688 2090 
C 2688 3857 1971 4224 1485 4224 
C 851 4224 243 3664 243 2800 
C 243 2000 762 1408 1414 1408 
C 1952 1408 2189 1910 2253 2122 
L 2253 1871 
z
M 1427 1510 
C 1254 1510 1011 1542 813 1929 
C 678 2181 678 2477 678 2793 
C 678 3174 678 3438 858 3722 
C 947 3857 1114 4076 1485 4076 
C 2240 4076 2240 2909 2240 2651 
C 2240 2193 2035 1510 1427 1510 
z
" transform="scale(0.015625)"/>
       </defs>
       <use xlink:href="#CMR17-31" transform="scale(0.996264)"/>
       <use xlink:href="#CMR17-39" transform="translate(45.690477 0) scale(0.996264)"/>
       <use xlink:href="#CMR17-30" transform="translate(91.380954 0) scale(0.996264)"/>
      </g>
     </g>
    </g>
    <g id="ytick_9">
     <g id="line2d_16">
      <g>
       <use xlink:href="#mcd39996ffa" x="57.6" y="53.568" style="stroke: #000000; stroke-width: 0.8"/>
      </g>
     </g>
     <g id="text_17">
      <!-- $\mathdefault{200}$ -->
      <g transform="translate(33.041029 57.71909) scale(0.12 -0.12)">
       <use xlink:href="#CMR17-32" transform="scale(0.996264)"/>
       <use xlink:href="#CMR17-30" transform="translate(45.690477 0) scale(0.996264)"/>
       <use xlink:href="#CMR17-30" transform="translate(91.380954 0) scale(0.996264)"/>
      </g>
     </g>
    </g>
    <g id="text_18">
     <!-- Episode length -->
     <g transform="translate(26.716433 210.30519) rotate(-90) scale(0.12 -0.12)">
      <defs>
       <path id="CMSS17-6c" d="M 947 4416 
L 474 4416 
L 474 0 
L 947 0 
L 947 4416 
z
" transform="scale(0.015625)"/>
       <path id="CMSS17-6e" d="M 2618 1878 
C 2618 2283 2522 2816 1798 2816 
C 1389 2816 1120 2604 941 2386 
L 941 2783 
L 474 2783 
L 474 0 
L 960 0 
L 960 1556 
C 960 1962 1114 2425 1549 2425 
C 2112 2425 2131 2045 2131 1826 
L 2131 0 
L 2618 0 
L 2618 1878 
z
" transform="scale(0.015625)"/>
       <path id="CMSS17-67" d="M 2848 2816 
C 2483 2809 2170 2739 1914 2617 
C 1702 2783 1485 2816 1338 2816 
C 781 2816 358 2356 358 1824 
C 358 1481 550 1222 563 1209 
C 448 1049 384 876 384 684 
C 384 460 474 300 544 211 
C 211 6 166 -308 166 -429 
C 166 -896 749 -1280 1498 -1280 
C 2253 -1280 2835 -896 2835 -423 
C 2835 460 1856 467 1587 467 
L 1069 467 
C 973 467 717 467 717 793 
C 717 921 774 1004 781 1011 
C 877 940 1075 832 1338 832 
C 1869 832 2310 1279 2310 1824 
C 2310 2128 2170 2349 2112 2425 
L 2131 2425 
C 2150 2425 2419 2444 2515 2444 
C 2720 2444 2739 2438 2918 2419 
L 2848 2816 
z
M 1338 1184 
C 1120 1184 813 1317 813 1824 
C 813 2375 1165 2463 1331 2463 
C 1549 2463 1856 2330 1856 1824 
C 1856 1272 1504 1184 1338 1184 
z
M 1581 0 
C 1734 0 2381 0 2381 -436 
C 2381 -711 1984 -928 1504 -928 
C 1018 -928 621 -717 621 -429 
C 621 -397 621 0 1062 0 
L 1581 0 
z
" transform="scale(0.015625)"/>
       <path id="CMSS17-74" d="M 1069 2380 
L 1901 2380 
L 1901 2752 
L 1069 2752 
L 1069 3520 
L 614 3520 
L 614 2752 
L 109 2752 
L 109 2380 
L 602 2380 
L 602 751 
C 602 384 685 -64 1107 -64 
C 1427 -64 1722 25 2003 172 
L 1901 551 
C 1747 416 1562 339 1363 339 
C 1082 339 1069 699 1069 860 
L 1069 2380 
z
" transform="scale(0.015625)"/>
       <path id="CMSS17-68" d="M 2618 1878 
C 2618 2283 2522 2816 1798 2816 
C 1395 2816 1133 2617 947 2399 
L 947 4416 
L 474 4416 
L 474 0 
L 960 0 
L 960 1556 
C 960 1962 1114 2425 1549 2425 
C 2112 2425 2131 2045 2131 1826 
L 2131 0 
L 2618 0 
L 2618 1878 
z
" transform="scale(0.015625)"/>
      </defs>
      <use xlink:href="#CMSS17-45" transform="scale(0.996264)"/>
      <use xlink:href="#CMSS17-70" transform="translate(55.892013 0) scale(0.996264)"/>
      <use xlink:href="#CMSS17-69" transform="translate(104.096956 0) scale(0.996264)"/>
      <use xlink:href="#CMSS17-73" transform="translate(126.277679 0) scale(0.996264)"/>
      <use xlink:href="#CMSS17-6f" transform="translate(162.191221 0) scale(0.996264)"/>
      <use xlink:href="#CMSS17-64" transform="translate(211.637284 0) scale(0.996264)"/>
      <use xlink:href="#CMSS17-65" transform="translate(259.842227 0) scale(0.996264)"/>
      <use xlink:href="#CMSS17-6c" transform="translate(332.710162 0) scale(0.996264)"/>
      <use xlink:href="#CMSS17-65" transform="translate(354.890885 0) scale(0.996264)"/>
      <use xlink:href="#CMSS17-6e" transform="translate(396.529707 0) scale(0.996264)"/>
      <use xlink:href="#CMSS17-67" transform="translate(444.73465 0) scale(0.996264)"/>
      <use xlink:href="#CMSS17-74" transform="translate(491.578273 0) scale(0.996264)"/>
      <use xlink:href="#CMSS17-68" transform="translate(525.40984 0) scale(0.996264)"/>
     </g>
    </g>
   </g>
   <g id="line2d_17">
    <path d="M 73.832727 53.568 
L 81.085763 53.568 
L 81.302272 54.111278 
L 85.199425 53.944529 
L 87.905782 53.944529 
L 88.12229 55.544778 
L 88.338799 56.454724 
L 88.447053 56.454724 
L 88.663562 57.835331 
L 89.096579 57.835331 
L 89.313087 58.839409 
L 91.261664 58.839409 
L 91.478173 59.561089 
L 91.586427 59.561089 
L 91.802936 60.125883 
L 92.019444 60.125883 
L 92.235953 59.749354 
L 93.535004 59.749354 
L 93.751512 61.004451 
L 94.076275 61.004451 
L 94.184529 61.318226 
L 94.401038 62.228171 
L 95.158818 62.228171 
L 95.375326 63.483268 
L 96.024852 63.483268 
L 96.24136 64.204949 
L 96.349615 64.204949 
L 96.566123 64.989385 
L 96.674378 65.397292 
L 96.890886 67.217183 
L 96.99914 67.217183 
L 97.215649 71.233494 
L 97.540412 71.233494 
L 97.75692 74.245728 
L 99.055971 74.33986 
L 99.27248 73.429914 
L 99.380734 73.775066 
L 99.597243 72.394459 
L 100.03026 72.394459 
L 100.138514 71.390381 
L 100.355023 72.833743 
L 101.54582 72.833743 
L 101.762328 75.31256 
L 102.195345 75.31256 
L 102.411854 74.590879 
L 102.736616 74.559502 
L 102.953125 74.936031 
L 103.277888 74.936031 
L 103.494396 75.56358 
L 103.819159 75.56358 
L 104.035668 76.222506 
L 104.468685 76.222506 
L 104.685193 74.967409 
L 105.009956 74.967409 
L 105.11821 74.653634 
L 105.226465 73.806444 
L 105.334719 73.931953 
L 105.551227 75.657712 
L 106.092499 75.657712 
L 106.200753 74.496747 
L 106.417262 75.56358 
L 106.742024 75.720467 
L 106.958533 79.423004 
L 107.066787 78.701323 
L 107.283296 79.925043 
L 107.499804 79.140607 
L 107.608058 82.246973 
L 107.716313 80.427082 
L 107.932821 81.807689 
L 108.14933 78.920965 
L 108.474093 82.811767 
L 108.582347 79.799533 
L 108.798855 80.646724 
L 108.90711 80.583969 
L 109.773144 80.552591 
L 109.989652 78.952342 
L 110.206161 78.952342 
L 110.422669 78.607191 
L 111.072195 78.607191 
L 111.288704 77.163829 
L 111.396958 77.163829 
L 111.613466 78.607191 
L 112.154738 78.607191 
L 112.371246 81.682179 
L 112.4795 81.682179 
L 112.696009 79.203362 
L 113.020772 79.203362 
L 113.23728 80.740856 
L 113.453789 80.740856 
L 113.670297 80.20744 
L 113.886806 79.830911 
L 113.99506 79.830911 
L 114.211569 81.744934 
L 114.428077 81.117385 
L 114.644586 81.117385 
L 114.75284 82.623502 
L 114.861094 81.964576 
L 115.185857 82.027331 
L 115.402366 82.027331 
L 115.618874 82.654879 
L 116.160146 82.623502 
L 116.2684 82.497992 
L 116.484908 83.282428 
L 116.701417 88.553837 
L 116.809671 88.553837 
L 117.134434 92.978054 
L 117.242688 91.911222 
L 117.350942 92.036732 
L 117.459197 92.350506 
L 117.675705 95.048965 
L 117.78396 94.515549 
L 117.892214 95.394117 
L 118.108722 99.096654 
L 118.216977 99.786957 
L 118.433485 102.830568 
L 118.541739 101.920623 
L 118.649994 104.838724 
L 118.758248 104.430817 
L 118.974756 106.533105 
L 119.083011 107.129276 
L 119.191265 107.066521 
L 120.057299 119.460607 
L 120.382062 126.26951 
L 120.815079 132.513619 
L 121.572859 141.895471 
L 122.005876 150.022226 
L 122.330639 152.971704 
L 122.438893 152.65793 
L 122.547147 153.944405 
L 122.763656 158.588265 
L 123.088419 160.753307 
L 123.196673 159.404078 
L 124.170961 170.731331 
L 124.495724 172.613977 
L 124.712233 172.896374 
L 124.928741 174.590755 
L 125.14525 173.241525 
L 125.253504 173.241525 
L 125.470012 175.688965 
L 125.578267 178.826708 
L 125.686521 177.320591 
L 126.011284 183.5647 
L 126.227792 183.5647 
L 126.336047 184.286381 
L 126.552555 188.961619 
L 127.093826 203.552125 
L 127.202081 204.58758 
L 127.310335 202.610802 
L 127.418589 202.987331 
L 127.526843 199.880965 
L 127.635098 201.198817 
L 127.851606 205.842677 
L 127.959861 205.403393 
L 128.284623 207.631191 
L 128.392878 208.478381 
L 128.501132 208.384249 
L 128.609386 210.266895 
L 128.71764 208.635268 
L 128.825895 210.45516 
L 128.934149 209.953121 
L 129.042403 208.792156 
L 129.258912 212.777089 
L 129.367166 211.30235 
L 129.47542 212.243673 
L 129.583675 211.114086 
L 129.800183 212.024031 
L 130.557963 205.905432 
L 130.774471 207.348794 
L 130.99098 205.936809 
L 131.207489 202.893198 
L 131.315743 202.39116 
L 131.423997 200.351626 
L 131.74876 202.453914 
L 131.857014 202.26565 
L 132.073523 205.089619 
L 132.398285 203.175595 
L 132.50654 201.481214 
L 132.614794 202.01463 
L 132.723048 201.857743 
L 132.831303 202.548047 
L 132.939557 201.638101 
L 133.156065 204.305183 
L 133.480828 202.799066 
L 133.697337 199.316171 
L 133.805591 199.159284 
L 133.913845 199.441681 
L 134.130354 203.23835 
L 134.455117 199.127907 
L 134.563371 200.257494 
L 134.671625 197.653167 
L 134.888134 201.951875 
L 134.996388 200.006475 
L 135.212896 202.704934 
L 135.321151 201.575346 
L 135.429405 202.485292 
L 135.537659 202.422537 
L 135.645913 203.301105 
L 135.754168 202.171518 
L 135.970676 204.211051 
L 136.187185 208.195984 
L 136.295439 208.572514 
L 136.403693 208.478381 
L 136.511948 205.905432 
L 136.620202 206.344716 
L 136.83671 202.077385 
L 137.269727 208.603891 
L 137.810999 200.508514 
L 137.919253 200.320249 
L 138.027507 198.625868 
L 138.460524 205.215128 
L 138.785287 200.194739 
L 139.218304 206.125074 
L 139.326559 205.968187 
L 139.434813 206.187829 
L 139.543067 205.309261 
L 139.651321 207.944965 
L 139.759576 205.874054 
L 139.86783 206.344716 
L 140.084338 207.599813 
L 140.192593 205.591658 
L 140.300847 208.195984 
L 140.409101 205.936809 
L 140.62561 208.258739 
L 140.733864 207.442926 
L 140.842118 208.541136 
L 140.950373 208.13323 
L 141.058627 209.953121 
L 141.166881 209.670724 
L 141.491644 212.839844 
L 141.599898 212.996732 
L 141.816407 215.914833 
L 141.924661 215.318661 
L 142.141169 217.828856 
L 142.249424 217.985743 
L 142.465932 222.347206 
L 142.574187 221.374506 
L 142.790695 224.167097 
L 142.898949 222.598226 
L 143.007204 223.351284 
L 143.440221 231.352529 
L 143.548475 230.536716 
L 143.656729 231.697681 
L 143.764983 230.724981 
L 143.873238 230.787735 
L 144.089746 228.810957 
L 144.306255 230.693603 
L 144.414509 231.038755 
L 144.739272 236.153276 
L 144.847526 238.537961 
L 145.064035 237.031844 
L 145.388797 244.217276 
L 145.605306 244.719315 
L 145.821815 242.836669 
L 146.038323 241.173665 
L 146.47134 248.484607 
L 146.579594 248.233588 
L 146.687849 248.233588 
L 146.904357 250.994802 
L 147.012611 249.771082 
L 147.337374 253.473619 
L 147.445629 252.908825 
L 147.9869 259.81186 
L 148.203408 260.564918 
L 148.74468 267.75035 
L 148.852934 267.499331 
L 148.961188 267.969992 
L 149.069443 267.75035 
L 149.285951 270.166412 
L 149.394205 268.785805 
L 149.50246 269.381977 
L 149.827222 273.398288 
L 149.935477 273.272778 
L 150.043731 274.057214 
L 150.151985 273.806195 
L 150.476748 276.630163 
L 150.585002 275.626086 
L 150.801511 277.759751 
L 150.909765 278.13628 
L 151.018019 275.782973 
L 151.126274 277.320467 
L 151.234528 277.132202 
L 151.451036 278.983471 
L 151.667545 279.705152 
L 152.425325 290.530366 
L 152.750088 287.957416 
L 152.966596 291.973728 
L 153.07485 292.538521 
L 153.183105 294.327035 
L 153.399613 292.413012 
L 153.507867 292.538521 
L 153.724376 289.996949 
L 153.83263 292.161992 
L 154.049139 290.498988 
L 154.265647 286.32579 
L 154.373902 285.855128 
L 154.482156 287.078848 
L 154.59041 286.827829 
L 154.698664 286.921961 
L 154.915173 289.149759 
L 155.023427 291.879595 
L 155.131681 291.565821 
L 155.34819 295.488 
L 155.456444 295.331113 
L 155.564699 293.730864 
L 155.672953 294.891829 
L 156.322478 289.400778 
L 156.755495 291.252047 
L 156.86375 294.829074 
L 157.080258 293.762241 
L 157.296767 291.220669 
L 157.62153 295.174226 
L 157.729784 294.483922 
L 158.162801 292.444389 
L 158.271055 290.906895 
L 158.379309 294.452545 
L 158.487564 294.044638 
L 158.595818 294.201525 
L 158.920581 291.252047 
L 159.028835 292.507144 
L 159.137089 291.754086 
L 159.245344 291.910973 
L 159.461852 288.553588 
L 159.570106 288.333946 
L 159.894869 289.934195 
L 160.111378 288.428078 
L 160.219632 288.679097 
L 160.327886 290.436233 
L 160.544395 288.584965 
L 160.760903 290.091082 
L 160.869158 288.020171 
L 160.977412 288.52221 
L 161.19392 288.082926 
L 161.410429 285.164825 
L 161.518683 286.4513 
L 161.626937 286.294412 
L 162.276463 288.490833 
L 162.384717 287.235735 
L 162.492972 287.926039 
L 162.817734 285.039315 
L 162.925989 285.384467 
L 163.142497 283.313556 
L 163.46726 280.991626 
L 163.683769 283.941105 
L 163.900277 280.615097 
L 164.008531 280.646475 
L 164.22504 278.763829 
L 164.441548 277.03807 
L 164.549803 277.320467 
L 164.658057 277.194957 
L 164.766311 277.257712 
L 164.874565 277.948016 
L 164.98282 277.540109 
L 165.199328 278.795206 
L 165.307583 278.606942 
L 165.524091 276.033992 
L 165.632345 275.218179 
L 165.7406 276.347767 
L 165.957108 273.021759 
L 166.065362 272.488342 
L 166.173617 272.707984 
L 166.390125 270.888093 
L 166.498379 271.923549 
L 166.606634 270.386054 
L 166.931397 273.74344 
L 167.039651 272.613852 
L 167.256159 272.959004 
L 167.364414 272.770739 
L 167.580922 274.308233 
L 167.797431 272.425588 
L 167.905685 273.931704 
L 168.013939 273.335533 
L 168.230448 274.245479 
L 168.555211 272.770739 
L 168.663465 273.021759 
L 169.096482 277.320467 
L 169.204736 279.48551 
L 169.31299 278.073525 
L 169.421245 278.199035 
L 169.529499 277.822506 
L 169.637753 276.285012 
L 169.854262 277.602864 
L 169.962516 277.383222 
L 170.07077 278.230412 
L 170.287279 276.222257 
L 170.395533 276.787051 
L 170.503787 276.347767 
L 170.612042 276.598786 
L 170.82855 273.335533 
L 170.936804 273.61793 
L 171.045059 274.496498 
L 171.261567 273.931704 
L 171.369821 272.2687 
L 171.478076 272.331455 
L 171.694584 270.888093 
L 171.802839 272.425588 
L 171.911093 270.825339 
L 172.019347 270.919471 
L 172.235856 267.718973 
L 172.34411 269.225089 
L 172.560618 266.118724 
L 173.10189 263.263377 
L 173.210144 263.137868 
L 173.318398 263.420265 
L 173.534907 261.663128 
L 173.643161 262.227922 
L 173.751415 260.972825 
L 173.85967 257.929214 
L 173.967924 258.431253 
L 174.076178 257.897837 
L 175.266975 237.345619 
L 176.566026 216.134475 
L 176.890789 210.486537 
L 177.107298 206.313339 
L 177.540315 198.688623 
L 177.865077 190.687377 
L 177.973332 189.965696 
L 179.380637 162.761463 
L 179.488891 161.851518 
L 179.921909 152.124514 
L 180.138417 148.767128 
L 180.246671 149.488809 
L 180.46318 148.202335 
L 180.679688 151.810739 
L 180.787943 150.775284 
L 181.004451 146.79035 
L 181.112705 146.79035 
L 181.22096 146.91586 
L 181.653977 141.801339 
L 181.762231 142.428887 
L 182.953028 122.84937 
L 183.061282 122.535595 
L 183.169537 123.037634 
L 183.494299 118.582039 
L 183.602554 118.299642 
L 183.819062 116.260109 
L 183.927316 117.923113 
L 184.143825 115.852202 
L 184.252079 115.75807 
L 184.360333 115.130521 
L 184.468588 115.350163 
L 184.576842 114.942257 
L 184.685096 116.009089 
L 184.793351 115.63256 
L 185.009859 112.620327 
L 185.226368 115.444296 
L 185.442876 115.569805 
L 185.55113 114.942257 
L 185.875893 122.096311 
L 185.984147 123.257276 
L 186.200656 127.963891 
L 186.417165 127.963891 
L 186.633673 130.442708 
L 186.850182 132.042957 
L 186.958436 132.042957 
L 187.283199 139.542163 
L 187.499707 141.989603 
L 187.716216 142.868171 
L 187.932724 144.123268 
L 188.149233 147.794428 
L 188.365741 148.578864 
L 188.58225 148.578864 
L 188.798758 149.331922 
L 189.015267 152.563798 
L 189.231775 153.097214 
L 189.34003 153.097214 
L 189.664793 159.027549 
L 189.989555 162.133914 
L 190.206064 162.133914 
L 190.422572 165.554054 
L 190.530827 165.930584 
L 190.639081 166.746397 
L 190.855589 169.633121 
L 190.963844 169.444856 
L 191.072098 168.78593 
L 191.180352 167.060171 
L 191.288607 167.091549 
L 191.396861 167.4367 
L 191.721624 161.882895 
L 191.829878 161.757385 
L 191.938132 161.192591 
L 192.371149 167.68772 
L 192.479403 167.593588 
L 193.237183 175.186926 
L 193.345438 175.845852 
L 193.453692 175.720342 
L 193.561946 175.375191 
L 193.6702 176.065494 
L 193.778455 175.061416 
L 193.886709 176.065494 
L 194.103217 180.113183 
L 194.319726 179.485634 
L 194.42798 179.924918 
L 194.536235 179.768031 
L 194.644489 180.301447 
L 194.752743 182.278226 
L 194.969252 178.983595 
L 195.077506 179.705276 
L 195.402269 178.167782 
L 195.510523 179.799409 
L 195.618777 176.442023 
L 195.835286 180.238693 
L 196.051794 181.776187 
L 196.160049 180.772109 
L 196.268303 181.776187 
L 196.484811 184.317759 
L 196.809574 179.360125 
L 196.917828 180.928996 
L 197.134337 178.575689 
L 197.350845 182.340981 
L 197.4591 182.089961 
L 197.892117 188.083051 
L 198.108625 187.047595 
L 198.21688 186.765198 
L 198.325134 187.298615 
L 198.541642 190.624623 
L 198.649897 191.785588 
L 198.866405 195.142973 
L 199.082914 193.166195 
L 199.515931 196.084296 
L 199.624185 195.676389 
L 199.732439 198.625868 
L 199.840694 197.119751 
L 200.273711 202.01463 
L 200.490219 198.625868 
L 200.706728 201.638101 
L 200.814982 201.355704 
L 201.139745 204.273805 
L 201.247999 202.893198 
L 201.464508 206.438848 
L 201.681016 207.442926 
L 201.897525 205.246506 
L 202.222287 209.419704 
L 202.438796 211.490615 
L 202.871813 217.640591 
L 202.980067 215.977588 
L 203.088322 218.39365 
L 203.196576 217.734724 
L 203.30483 218.017121 
L 203.521339 219.24084 
L 203.846101 217.232685 
L 203.954356 216.981665 
L 204.06261 217.16993 
L 204.387373 220.056654 
L 204.603881 223.978833 
L 204.82039 225.892856 
L 204.928644 225.35944 
L 205.036898 223.414039 
L 205.361661 229.093354 
L 205.469915 228.842335 
L 205.57817 229.75228 
L 205.686424 229.030599 
L 205.794678 231.038755 
L 205.902932 230.85049 
L 206.011187 230.066054 
L 206.33595 232.356607 
L 206.444204 230.285696 
L 206.552458 231.980078 
L 206.660712 229.469883 
L 206.768967 231.321152 
L 206.877221 231.258397 
L 207.093729 229.030599 
L 207.201984 228.622693 
L 207.310238 229.030599 
L 207.635001 233.046911 
L 207.743255 233.894101 
L 207.959764 231.634926 
L 208.068018 232.387984 
L 208.284526 230.881868 
L 208.392781 231.446661 
L 208.717543 229.62677 
L 209.042306 224.386739 
L 209.15056 224.637759 
L 209.367069 222.723735 
L 209.475323 224.951533 
L 209.583578 224.355362 
L 209.800086 221.751035 
L 210.016595 225.296685 
L 210.124849 225.202553 
L 210.449612 228.371673 
L 210.66612 228.057899 
L 210.774374 227.30484 
L 210.882629 228.340296 
L 210.990883 227.55586 
L 211.099137 227.775502 
L 211.4239 231.540794 
L 211.532154 230.568093 
L 211.640409 230.599471 
L 211.748663 230.944623 
L 211.965171 233.109665 
L 212.073426 233.078288 
L 212.18168 233.799969 
L 212.506443 232.136965 
L 212.722951 232.733136 
L 212.93946 236.090521 
L 213.047714 235.965012 
L 213.264223 236.435673 
L 213.372477 235.965012 
L 213.588985 233.486195 
L 213.69724 234.019611 
L 213.913748 232.482117 
L 214.130257 231.195642 
L 214.346765 231.603549 
L 214.45502 233.548949 
L 214.563274 232.858646 
L 214.779782 234.302008 
L 214.996291 235.149198 
L 215.212799 234.678537 
L 215.321054 234.709914 
L 215.429308 234.27063 
L 215.754071 230.379829 
L 215.862325 229.909167 
L 216.078834 233.42344 
L 216.403596 231.258397 
L 216.511851 232.639004 
L 216.728359 230.724981 
L 216.836613 232.450739 
L 217.053122 230.568093 
L 217.26963 229.75228 
L 217.377885 230.254319 
L 217.486139 231.383907 
L 217.594393 233.737214 
L 217.810902 230.787735 
L 218.135665 234.364763 
L 218.352173 231.572171 
L 218.568682 233.235175 
L 218.78519 232.07421 
L 218.893444 233.768591 
L 219.001699 232.639004 
L 219.218207 232.921401 
L 219.326462 231.572171 
L 219.867733 236.247409 
L 219.975987 236.623938 
L 220.409004 231.823191 
L 220.733767 233.956856 
L 220.950276 231.791813 
L 221.05853 233.360685 
L 221.275038 231.415284 
L 221.383293 231.164265 
L 221.491547 233.768591 
L 221.599801 232.921401 
L 221.708055 233.862724 
L 221.924564 230.379829 
L 222.032818 231.540794 
L 222.249327 228.152031 
L 222.357581 228.057899 
L 222.465835 229.909167 
L 222.682344 228.905089 
L 222.790598 227.273463 
L 223.007107 229.124732 
L 223.115361 227.744125 
L 223.440124 229.815035 
L 223.764886 227.901012 
L 223.873141 227.932389 
L 223.981395 228.214786 
L 224.089649 227.493105 
L 224.197904 225.35944 
L 224.306158 225.453572 
L 224.630921 226.708669 
L 224.739175 226.771424 
L 224.847429 228.748202 
L 225.3887 225.704591 
L 225.496955 225.171175 
L 225.605209 223.163019 
L 225.929972 226.363518 
L 226.038226 226.834179 
L 226.14648 226.426272 
L 226.254735 227.55586 
L 226.362989 226.363518 
L 226.796006 233.831346 
L 226.90426 233.141043 
L 227.120769 230.568093 
L 227.229023 230.379829 
L 227.337277 230.944623 
L 227.445532 229.030599 
L 227.553786 229.62677 
L 227.66204 229.312996 
L 227.770294 227.995144 
L 227.878549 228.308918 
L 227.986803 226.865556 
L 228.095057 227.053821 
L 228.203311 227.932389 
L 228.528074 225.767346 
L 228.744583 227.336218 
L 228.961091 227.493105 
L 229.069346 227.493105 
L 229.285854 227.932389 
L 229.502363 226.58316 
L 229.610617 227.242086 
L 230.151888 234.427518 
L 230.260142 233.737214 
L 230.368397 233.831346 
L 230.476651 233.078288 
L 230.801414 235.776747 
L 230.909668 235.525728 
L 231.342685 241.48744 
L 231.559194 244.280031 
L 231.775702 241.644327 
L 231.883956 243.150444 
L 231.992211 242.868047 
L 232.100465 243.338708 
L 232.316974 245.221354 
L 232.533482 242.58565 
L 232.966499 248.390475 
L 233.074753 248.641494 
L 233.291262 250.963424 
L 233.399516 250.555518 
L 233.616025 251.151689 
L 233.724279 250.52414 
L 233.940788 252.061634 
L 234.049042 253.599128 
L 234.157296 252.563673 
L 234.26555 253.410864 
L 234.373805 253.159844 
L 234.482059 252.187144 
L 234.590313 252.249899 
L 234.698567 252.030257 
L 235.02333 250.367253 
L 235.239839 252.84607 
L 235.456347 251.841992 
L 235.672856 253.285354 
L 235.78111 252.595051 
L 235.997619 253.599128 
L 236.105873 254.665961 
L 236.214127 254.571829 
L 236.322381 253.975658 
L 236.53889 255.889681 
L 236.755398 254.728716 
L 236.971907 256.360342 
L 237.404924 254.226677 
L 237.621433 253.379486 
L 237.729687 252.783315 
L 237.946195 254.791471 
L 238.05445 255.04249 
L 238.162704 256.26621 
L 238.379212 255.105245 
L 238.487467 255.105245 
L 238.595721 254.352187 
L 238.703975 255.544529 
L 239.570009 243.307331 
L 240.544298 226.865556 
L 241.193823 212.682957 
L 242.168112 193.730988 
L 242.492875 184.662911 
L 242.709383 183.721588 
L 243.1424 173.994584 
L 243.575417 166.997416 
L 243.90018 160.84744 
L 244.116689 156.517354 
L 244.549706 147.480654 
L 244.65796 146.633463 
L 245.199231 134.427642 
L 245.523994 130.505463 
L 247.797334 85.604358 
L 248.122096 80.019175 
L 248.338605 76.724545 
L 248.879876 64.706988 
L 249.74591 53.568 
L 252.127504 53.568 
L 252.452267 57.270537 
L 253.426556 57.270537 
L 253.643064 59.027673 
L 253.859573 60.722054 
L 254.184335 61.632 
L 254.29259 61.914397 
L 254.725607 66.966163 
L 254.833861 67.876109 
L 255.05037 71.390381 
L 255.266878 74.433992 
L 255.483387 74.904654 
L 255.699895 74.904654 
L 255.916404 75.783222 
L 256.132912 75.783222 
L 256.349421 77.195206 
L 256.565929 77.63449 
L 256.890692 78.607191 
L 257.107201 79.642646 
L 257.323709 83.596202 
L 257.540218 83.596202 
L 257.86498 86.231907 
L 258.081489 87.330117 
L 258.189743 87.330117 
L 258.297998 87.769401 
L 258.731015 95.802023 
L 258.839269 96.649214 
L 259.055777 99.975222 
L 259.705303 106.627237 
L 259.921812 110.204265 
L 260.030066 111.11421 
L 260.679591 122.755237 
L 261.220863 130.348576 
L 261.329117 130.348576 
L 261.545626 131.007502 
L 261.762134 134.396265 
L 261.870388 134.396265 
L 262.195151 140.357977 
L 262.303405 140.891393 
L 263.061185 148.98677 
L 263.277694 146.727595 
L 263.602457 150.869416 
L 263.710711 150.869416 
L 264.143728 155.419144 
L 264.251982 155.701541 
L 264.360236 157.30179 
L 264.468491 155.732918 
L 264.576745 156.07807 
L 264.684999 155.199502 
L 264.901508 157.521432 
L 265.009762 160.219891 
L 265.118016 159.843362 
L 265.226271 159.937494 
L 265.334525 160.533665 
L 265.442779 159.937494 
L 265.659288 161.914272 
L 265.767542 161.757385 
L 265.875796 159.74923 
L 265.98405 160.659175 
L 266.092305 160.59642 
L 266.200559 160.188514 
L 266.525322 162.824218 
L 266.74183 166.056093 
L 267.066593 167.844607 
L 267.174847 166.432623 
L 267.283102 166.683642 
L 267.49961 166.244358 
L 267.716119 165.303035 
L 267.824373 166.087471 
L 267.932627 165.177525 
L 268.040882 166.307113 
L 268.149136 164.612732 
L 268.582153 168.754553 
L 268.690407 170.323424 
L 268.906916 167.405323 
L 269.01517 167.279813 
L 269.123424 168.346646 
L 269.231678 167.907362 
L 269.448187 164.204825 
L 269.556441 161.757385 
L 269.664696 163.012482 
L 269.881204 160.72193 
L 269.989458 161.506366 
L 270.097713 161.255346 
L 270.314221 163.451767 
L 270.422475 163.891051 
L 271.072001 160.408156 
L 271.180255 161.286724 
L 271.28851 160.000249 
L 271.613272 154.00716 
L 271.721527 153.724763 
L 271.829781 156.360467 
L 272.046289 152.689307 
L 272.479306 160.941572 
L 272.587561 159.404078 
L 272.804069 159.529588 
L 273.020578 157.4273 
L 273.237086 161.098459 
L 273.453595 159.686475 
L 273.670103 161.474988 
L 273.886612 160.345401 
L 273.994866 159.215813 
L 274.10312 159.3727 
L 274.211375 159.153058 
L 274.319629 160.84744 
L 274.427883 160.72193 
L 274.644392 162.730086 
L 274.752646 161.380856 
L 274.8609 161.663253 
L 274.969155 161.098459 
L 275.185663 163.326257 
L 275.293917 162.635953 
L 275.61868 169.695875 
L 275.835189 169.915518 
L 275.943443 167.81323 
L 276.159951 170.668576 
L 276.268206 169.88414 
L 276.37646 169.915518 
L 276.484714 168.78593 
L 276.592969 170.731331 
L 276.917731 170.637198 
L 277.025986 169.790008 
L 277.242494 171.23337 
L 277.459003 170.919595 
L 277.567257 169.790008 
L 277.675511 170.888218 
L 277.783765 169.790008 
L 277.89202 171.264747 
L 278.000274 170.197914 
L 278.325037 173.743564 
L 278.541545 177.979518 
L 278.974562 181.713432 
L 279.082817 181.431035 
L 279.299325 180.238693 
L 279.407579 180.928996 
L 279.515834 180.834864 
L 279.624088 180.364202 
L 279.948851 183.721588 
L 280.057105 184.003984 
L 280.165359 185.761121 
L 280.273614 185.008062 
L 280.490122 185.666988 
L 280.598376 184.411891 
L 280.706631 186.325914 
L 281.139648 181.587922 
L 281.247902 179.924918 
L 281.356156 180.050428 
L 281.464411 180.772109 
L 281.680919 177.759875 
L 281.897428 179.830786 
L 282.113936 177.508856 
L 282.330445 177.006817 
L 282.546953 176.567533 
L 283.304733 166.464 
L 283.412987 166.683642 
L 283.73775 169.350724 
L 283.846004 170.574444 
L 283.954259 169.507611 
L 284.062513 167.060171 
L 284.170767 167.248436 
L 284.387276 166.024716 
L 284.603784 163.483144 
L 284.712039 163.16937 
L 285.036801 167.091549 
L 285.145056 168.127004 
L 285.361564 166.558132 
L 285.578073 167.311191 
L 285.686327 167.248436 
L 285.794581 165.836451 
L 285.902835 166.401245 
L 286.01109 167.624965 
L 286.119344 166.495377 
L 286.227598 167.719097 
L 286.552361 164.14207 
L 286.660615 165.459922 
L 286.76887 163.953805 
L 286.877124 164.204825 
L 287.093632 165.428545 
L 287.310141 163.451767 
L 287.418395 164.612732 
L 287.634904 162.886973 
L 287.851412 163.765541 
L 287.959667 164.361712 
L 288.176175 162.761463 
L 288.500938 161.443611 
L 288.609192 160.376778 
L 288.717446 161.537743 
L 288.825701 161.161214 
L 289.042209 163.765541 
L 289.258718 164.769619 
L 289.366972 163.389012 
L 289.583481 164.738241 
L 289.799989 164.612732 
L 289.908243 164.863751 
L 290.124752 162.698708 
L 290.233006 163.200747 
L 290.34126 161.663253 
L 290.557769 162.573198 
L 290.666023 160.941572 
L 290.774277 160.972949 
L 290.882532 160.972949 
L 290.990786 160.753307 
L 291.207295 158.462755 
L 291.315549 158.902039 
L 292.073329 165.742319 
L 292.181583 169.350724 
L 292.289837 167.499455 
L 292.398091 168.127004 
L 292.6146 170.668576 
L 292.722854 170.417556 
L 292.831109 171.453012 
L 293.047617 173.743564 
L 293.155871 173.806319 
L 293.480634 177.446101 
L 293.697143 180.897619 
L 293.913651 183.407813 
L 294.021905 182.968529 
L 294.13016 181.744809 
L 294.238414 182.686132 
L 294.346668 181.964451 
L 294.563177 180.113183 
L 294.671431 180.364202 
L 294.779685 180.175938 
L 294.88794 180.489712 
L 295.104448 182.121339 
L 295.320957 186.765198 
L 295.429211 186.325914 
L 295.537465 184.631533 
L 295.645719 184.945307 
L 295.753974 183.125416 
L 295.862228 183.752965 
L 296.186991 179.579767 
L 296.511754 176.442023 
L 296.728262 180.175938 
L 296.836516 179.893541 
L 296.944771 177.885385 
L 297.053025 179.234615 
L 297.377788 177.665743 
L 297.486042 177.571611 
L 297.594296 176.755798 
L 297.702551 177.759875 
L 297.810805 177.540233 
L 298.027313 173.084638 
L 298.243822 176.410646 
L 298.352076 175.281058 
L 298.46033 176.222381 
L 298.676839 178.575689 
L 299.001602 183.407813 
L 299.109856 182.309603 
L 299.434619 184.474646 
L 299.651127 184.223626 
L 299.759382 184.851175 
L 299.867636 184.78842 
L 299.97589 184.882553 
L 300.084144 186.796576 
L 300.192399 185.541479 
L 300.300653 185.635611 
L 300.408907 186.106272 
L 300.517161 185.321837 
L 300.625416 187.392747 
L 300.73367 187.36137 
L 300.950179 189.087128 
L 301.058433 191.158039 
L 301.166687 190.624623 
L 301.383196 192.821043 
L 301.49145 192.726911 
L 301.707958 194.797821 
L 301.924467 198.155206 
L 302.032721 199.096529 
L 302.140975 201.010553 
L 302.357484 198.908265 
L 302.465738 197.402148 
L 302.682247 199.002397 
L 302.898755 200.131984 
L 303.00701 201.104685 
L 303.115264 198.249339 
L 303.223518 199.724078 
L 303.440027 196.868732 
L 303.656535 198.908265 
L 303.764789 198.217961 
L 303.981298 201.857743 
L 304.306061 206.438848 
L 304.414315 207.191907 
L 304.522569 206.407471 
L 304.739078 210.580669 
L 304.847332 209.670724 
L 305.280349 215.757946 
L 305.496858 219.993899 
L 305.605112 218.456405 
L 305.713366 219.460482 
L 305.821621 218.330895 
L 306.038129 219.742879 
L 306.146383 218.895689 
L 306.362892 220.71558 
L 306.687655 227.775502 
L 306.795909 228.403051 
L 307.120672 233.956856 
L 307.445435 240.106833 
L 307.553689 239.16551 
L 307.661943 238.820358 
L 307.770197 237.722148 
L 307.986706 241.456062 
L 308.09496 240.483362 
L 308.311469 243.777992 
L 308.419723 243.652482 
L 308.636231 246.382319 
L 308.85274 250.555518 
L 308.960994 253.379486 
L 309.069249 252.030257 
L 309.177503 252.72056 
L 309.285757 254.289432 
L 309.394011 251.841992 
L 309.502266 252.375409 
L 309.827028 247.888436 
L 309.935283 246.947113 
L 310.260045 250.900669 
L 310.3683 251.528218 
L 310.584808 254.226677 
L 310.693063 252.500918 
L 310.801317 253.567751 
L 311.234334 246.539206 
L 311.342588 246.476451 
L 311.450842 247.606039 
L 311.559097 247.480529 
L 311.883859 251.371331 
L 311.992114 250.618272 
L 312.208622 254.414942 
L 312.316877 251.87337 
L 312.533385 253.850148 
L 312.641639 253.630506 
L 312.749894 253.756016 
L 312.966402 254.948358 
L 313.074656 254.854226 
L 313.399419 257.709572 
L 313.615928 255.952436 
L 313.724182 256.423097 
L 313.832436 257.427175 
L 313.940691 256.611362 
L 314.373708 262.980981 
L 314.590216 261.851393 
L 314.69847 262.290677 
L 314.914979 261.349354 
L 315.131487 256.548607 
L 315.239742 257.61544 
L 315.347996 257.521307 
L 315.672759 254.854226 
L 315.781013 257.36442 
L 315.997522 253.787393 
L 316.21403 254.477696 
L 316.322284 251.74786 
L 316.430539 251.841992 
L 316.647047 254.226677 
L 316.863556 254.320809 
L 316.97181 252.563673 
L 317.080064 253.410864 
L 317.404827 250.743782 
L 317.72959 248.672872 
L 317.946098 249.42593 
L 318.054353 248.359097 
L 318.270861 245.723393 
L 318.48737 244.248654 
L 318.703878 246.288187 
L 318.812133 246.476451 
L 319.028641 244.562428 
L 319.136895 245.315486 
L 319.24515 243.997634 
L 319.461658 244.90758 
L 319.894675 240.891268 
L 320.002929 242.33463 
L 320.111184 241.863969 
L 320.435947 237.094599 
L 320.544201 238.945868 
L 320.652455 237.910412 
L 320.868964 239.636171 
L 321.301981 236.561183 
L 321.518489 238.161432 
L 321.626743 240.169588 
L 321.734998 239.981323 
L 322.168015 244.342786 
L 322.384523 244.750693 
L 322.709286 240.859891 
L 322.81754 239.291019 
L 322.925795 240.13821 
L 323.142303 238.0673 
L 323.250557 238.757603 
L 323.791829 230.944623 
L 323.900083 232.011455 
L 324.116592 229.75228 
L 324.224846 233.203798 
L 324.3331 232.670381 
L 324.441354 232.858646 
L 324.549609 232.042833 
L 324.766117 228.340296 
L 325.09088 224.857401 
L 325.415643 220.401805 
L 325.523897 221.311751 
L 325.740406 219.334973 
L 325.84866 219.585992 
L 326.065168 222.409961 
L 326.281677 218.927066 
L 326.389931 218.864311 
L 326.714694 216.511004 
L 326.822948 215.852078 
L 326.931203 216.542381 
L 327.147711 214.753868 
L 327.36422 216.19723 
L 327.580728 214.816623 
L 327.688982 215.287284 
L 327.797237 215.130397 
L 327.905491 214.283206 
L 328.013745 211.521992 
L 328.230254 214.063564 
L 328.338508 214.000809 
L 328.446762 212.243673 
L 328.663271 217.922988 
L 328.771525 217.16993 
L 328.879779 217.201307 
L 328.988034 217.358195 
L 329.096288 219.146708 
L 329.204542 218.738802 
L 329.312796 220.213541 
L 329.421051 219.334973 
L 329.854068 212.714335 
L 329.962322 212.588825 
L 330.178831 211.17684 
L 330.395339 209.074553 
L 330.611848 207.850833 
L 330.828356 210.047253 
L 330.93661 209.607969 
L 331.044865 207.725323 
L 331.153119 208.258739 
L 331.477882 211.019953 
L 331.586136 210.863066 
L 331.802645 206.815377 
L 331.910899 206.784 
L 332.019153 207.442926 
L 332.127407 207.223284 
L 332.235662 208.603891 
L 332.560424 202.704934 
L 332.668679 203.23835 
L 332.993441 208.039097 
L 333.101696 207.88221 
L 333.20995 208.635268 
L 333.534713 206.627113 
L 333.751221 208.541136 
L 333.859476 206.940887 
L 333.96773 207.317416 
L 334.72551 215.412794 
L 334.833764 214.032187 
L 335.050273 218.079875 
L 335.158527 217.16993 
L 335.266781 217.326817 
L 335.375035 216.165852 
L 335.699798 221.68828 
L 336.024561 225.892856 
L 336.132815 224.763268 
L 336.241069 224.888778 
L 336.890595 229.783658 
L 337.107104 233.015533 
L 337.540121 238.883113 
L 337.864883 240.420607 
L 337.973138 240.169588 
L 338.081392 238.883113 
L 338.189646 239.793058 
L 338.406155 238.224187 
L 338.839172 240.106833 
L 338.947426 243.150444 
L 339.05568 242.209121 
L 339.163935 243.715237 
L 339.272189 243.307331 
L 339.380443 245.315486 
L 339.596952 240.859891 
L 339.705206 241.424685 
L 339.921715 238.318319 
L 340.029969 238.130054 
L 340.246477 236.906335 
L 340.462986 240.295097 
L 340.679494 241.895346 
L 340.787749 241.832591 
L 340.896003 244.813447 
L 341.004257 244.531051 
L 341.112511 245.284109 
L 341.220766 244.625183 
L 341.437274 246.350942 
L 341.545529 246.507829 
L 341.653783 247.606039 
L 341.870291 245.189977 
L 341.978546 245.409619 
L 342.0868 245.378241 
L 342.195054 245.786148 
L 342.411563 243.715237 
L 342.519817 244.593805 
L 342.736325 248.641494 
L 342.952834 247.355019 
L 343.061088 247.511907 
L 343.169343 245.440996 
L 343.494105 248.20221 
L 343.710614 243.370086 
L 343.818868 243.872125 
L 344.035377 241.707082 
L 344.251885 239.291019 
L 344.360139 241.424685 
L 344.468394 240.954023 
L 344.576648 239.793058 
L 344.793157 241.707082 
L 345.009665 236.937712 
L 345.117919 235.996389 
L 345.226174 236.467051 
L 345.767445 231.415284 
L 345.875699 231.9487 
L 345.983953 230.630848 
L 346.200462 232.733136 
L 346.308716 234.584405 
L 346.416971 233.392062 
L 346.525225 235.400218 
L 346.849988 231.164265 
L 346.958242 231.885946 
L 347.17475 235.651237 
L 347.283005 237.94179 
L 347.391259 237.439751 
L 347.499513 237.847658 
L 347.716022 235.965012 
L 347.824276 235.180576 
L 348.040785 232.32523 
L 348.257293 229.407128 
L 348.582056 224.794646 
L 349.015073 229.971922 
L 349.123327 227.618615 
L 349.339836 230.630848 
L 349.772853 227.147953 
L 349.881107 227.493105 
L 349.989361 227.587237 
L 350.097616 227.30484 
L 350.20587 228.559938 
L 350.422378 226.112498 
L 350.638887 223.696436 
L 350.855395 228.748202 
L 350.96365 228.371673 
L 351.071904 229.658148 
L 351.180158 229.250241 
L 351.396667 228.026521 
L 351.613175 231.007377 
L 351.72143 230.254319 
L 351.829684 227.43035 
L 352.046192 229.501261 
L 352.370955 232.795891 
L 352.479209 232.607626 
L 352.695718 229.689525 
L 352.912226 232.105588 
L 353.020481 233.925479 
L 353.128735 233.737214 
L 353.345244 237.094599 
L 353.453498 236.310163 
L 353.561752 236.686693 
L 353.778261 239.134132 
L 353.886515 238.663471 
L 353.994769 238.161432 
L 354.103023 239.918568 
L 354.427786 237.847658 
L 354.53604 238.286942 
L 354.752549 236.561183 
L 354.969058 239.761681 
L 355.077312 241.612949 
L 355.185566 241.550195 
L 355.402075 238.537961 
L 355.510329 239.855813 
L 355.618583 238.035922 
L 355.835092 241.424685 
L 356.0516 241.048156 
L 356.159854 239.447907 
L 356.376363 239.542039 
L 356.484617 239.16551 
L 356.592872 239.667549 
L 356.701126 242.71116 
L 356.80938 240.828514 
L 356.917634 240.922646 
L 357.025889 239.981323 
L 357.350651 233.988233 
L 357.458906 231.729058 
L 357.56716 232.921401 
L 357.783668 231.603549 
L 357.891923 231.791813 
L 358.216686 224.826023 
L 358.433194 221.217619 
L 358.541448 222.598226 
L 358.757957 219.49186 
L 359.08272 217.358195 
L 359.299228 219.460482 
L 359.407482 219.962521 
L 359.515737 219.837012 
L 359.623991 221.500016 
L 359.732245 219.648747 
L 359.948754 221.154864 
L 360.057008 221.154864 
L 360.273517 215.8207 
L 360.381771 217.546459 
L 360.490025 217.29544 
L 360.706534 218.51916 
L 360.923042 214.879377 
L 361.247805 211.17684 
L 361.356059 211.239595 
L 361.572568 209.294195 
L 361.789076 205.748545 
L 361.897331 205.528903 
L 362.005585 206.344716 
L 362.222093 203.301105 
L 362.330348 203.803144 
L 362.438602 202.955953 
L 362.763365 206.784 
L 362.979873 203.050086 
L 363.304636 198.312093 
L 363.41289 198.939642 
L 363.629399 201.606724 
L 363.737653 199.880965 
L 363.845907 200.257494 
L 364.062416 198.531735 
L 364.17067 198.72 
L 364.278924 199.222039 
L 364.387179 201.763611 
L 364.820196 195.550879 
L 364.92845 195.958786 
L 365.036704 196.366693 
L 365.253213 199.284794 
L 365.361467 198.876887 
L 365.469721 199.065152 
L 365.68623 200.163362 
L 366.010993 194.672311 
L 366.119247 194.107518 
L 366.227501 194.797821 
L 366.335756 196.303938 
L 366.44401 194.672311 
L 366.552264 194.829198 
L 366.660518 193.166195 
L 366.768773 193.228949 
L 366.877027 192.695533 
L 366.985281 193.134817 
L 367.093535 191.942475 
L 367.310044 193.385837 
L 367.418298 193.982008 
L 367.526552 193.542724 
L 367.743061 191.158039 
L 367.95957 194.20165 
L 368.392587 197.433525 
L 368.500841 197.025619 
L 368.717349 198.029696 
L 368.825604 196.178428 
L 369.042112 197.904187 
L 369.150366 197.025619 
L 369.366875 199.190661 
L 369.475129 198.123829 
L 369.583384 199.410304 
L 369.691638 198.249339 
L 369.799892 199.755455 
L 369.908146 199.6927 
L 370.016401 199.253416 
L 370.124655 197.935564 
L 370.232909 198.249339 
L 370.341163 199.065152 
L 370.665926 194.923331 
L 370.882435 190.78151 
L 371.207198 195.676389 
L 371.315452 194.546802 
L 371.423706 197.025619 
L 371.53196 196.115673 
L 371.640215 196.303938 
L 371.748469 197.245261 
L 371.964977 194.766444 
L 372.073232 195.142973 
L 372.397994 200.194739 
L 372.506249 201.606724 
L 372.614503 200.508514 
L 372.722757 200.822288 
L 372.831012 201.606724 
L 372.939266 198.155206 
L 373.155774 200.226117 
L 373.264029 201.230195 
L 373.480537 197.49628 
L 373.588791 197.62179 
L 373.8053 197.433525 
L 373.913554 196.147051 
L 374.021808 198.468981 
L 374.238317 195.896031 
L 374.454826 192.726911 
L 374.56308 191.377681 
L 374.671334 191.942475 
L 374.779588 190.310848 
L 374.996097 191.095284 
L 375.104351 189.714677 
L 375.32086 184.91393 
L 375.537368 182.748887 
L 375.753877 185.918008 
L 375.862131 185.164949 
L 376.07864 181.36828 
L 376.511657 186.200405 
L 376.619911 185.823875 
L 376.728165 187.581012 
L 376.836419 185.88663 
L 377.052928 188.773354 
L 377.269436 187.675144 
L 377.377691 187.737899 
L 377.485945 187.863409 
L 377.702454 189.087128 
L 377.810708 189.369525 
L 377.918962 190.561868 
L 378.027216 193.072062 
L 378.243725 191.095284 
L 378.351979 191.87972 
L 378.460233 190.875642 
L 378.568488 191.346304 
L 378.676742 193.417214 
L 378.89325 190.059829 
L 379.109759 193.166195 
L 379.218013 193.040685 
L 379.759285 196.805977 
L 379.867539 197.245261 
L 379.975793 198.625868 
L 380.192302 196.303938 
L 380.40881 193.166195 
L 380.625319 195.237105 
L 380.841827 191.848342 
L 380.950082 192.036607 
L 381.16659 193.668233 
L 381.274844 191.6287 
L 381.491353 192.758288 
L 381.707861 195.739144 
L 381.816116 195.958786 
L 381.92437 196.492202 
L 382.032624 194.358537 
L 382.140878 194.860576 
L 382.357387 192.256249 
L 382.573896 194.923331 
L 382.898658 192.883798 
L 383.006913 193.166195 
L 383.223421 190.78151 
L 383.331675 189.55779 
L 383.548184 192.85242 
L 383.656438 191.409058 
L 383.764692 191.565946 
L 383.981201 192.507268 
L 384.089455 192.413136 
L 384.19771 191.377681 
L 384.305964 194.107518 
L 384.414218 192.758288 
L 384.522472 193.919253 
L 384.630727 193.636856 
L 384.955489 197.213883 
L 385.063744 197.433525 
L 385.280252 201.920498 
L 385.388506 200.445759 
L 385.713269 204.838599 
L 385.821524 204.430693 
L 386.038032 202.955953 
L 386.146286 204.367938 
L 386.254541 204.085541 
L 386.471049 205.058241 
L 386.687558 202.422537 
L 387.01232 204.744467 
L 387.228829 201.198817 
L 387.445338 198.186584 
L 387.553592 199.002397 
L 387.661846 198.061074 
L 387.7701 200.163362 
L 388.203117 194.107518 
L 388.311372 193.730988 
L 388.419626 194.358537 
L 388.52788 194.107518 
L 388.636134 193.166195 
L 388.744389 194.138895 
L 388.852643 193.699611 
L 388.960897 192.758288 
L 389.177406 196.649089 
L 389.393914 195.17435 
L 389.502169 195.29986 
L 389.610423 195.268482 
L 389.718677 193.574101 
L 389.826931 194.546802 
L 389.935186 194.013385 
L 390.259948 191.063907 
L 390.368203 190.78151 
L 390.584711 187.424125 
L 390.80122 190.122584 
L 391.017728 189.149883 
L 391.342491 192.915175 
L 391.450745 192.85242 
L 391.667254 195.268482 
L 391.883762 199.253416 
L 392.100271 196.774599 
L 392.31678 198.939642 
L 392.533288 199.535813 
L 392.749797 196.868732 
L 392.858051 194.358537 
L 393.074559 195.550879 
L 393.182814 195.237105 
L 393.507576 187.706521 
L 393.724085 190.279471 
L 393.832339 190.279471 
L 394.048848 188.33407 
L 395.13139 173.680809 
L 395.456153 168.158381 
L 395.564408 167.373946 
L 396.105679 157.897961 
L 396.430442 151.842117 
L 396.863459 146.194179 
L 396.971713 145.880405 
L 397.40473 140.389354 
L 397.512984 140.389354 
L 397.729493 138.632218 
L 398.054256 132.98428 
L 398.16251 132.98428 
L 398.487273 130.223066 
L 398.487273 130.223066 
" clip-path="url(#p37440726a8)" style="fill: none; stroke: #92c6ff; stroke-width: 1.5; stroke-linecap: square"/>
   </g>
   <g id="line2d_18">
    <path d="M 73.832727 53.568 
L 119.732536 53.568 
L 119.949045 54.79172 
L 125.036995 54.79172 
L 125.253504 55.576156 
L 125.794775 55.576156 
L 126.011284 56.799875 
L 130.666217 56.799875 
L 130.882726 55.576156 
L 132.181777 55.576156 
L 132.398285 56.297837 
L 135.970676 56.297837 
L 136.187185 55.513401 
L 136.728456 55.513401 
L 136.944965 54.289681 
L 142.574187 54.289681 
L 142.790695 55.356514 
L 143.115458 55.356514 
L 143.331966 54.634833 
L 143.764983 54.634833 
L 143.981492 56.266459 
L 145.064035 56.266459 
L 145.280543 56.642988 
L 153.507867 56.642988 
L 153.724376 55.576156 
L 154.373902 55.576156 
L 154.59041 58.494257 
L 154.698664 58.494257 
L 154.915173 56.86263 
L 155.997716 56.86263 
L 156.10597 56.486101 
L 156.322478 57.050895 
L 156.755495 57.050895 
L 157.080258 60.910319 
L 158.271055 60.910319 
L 158.487564 62.918475 
L 158.704072 64.330459 
L 159.028835 64.330459 
L 159.245344 65.334537 
L 159.570106 65.334537 
L 159.786615 66.244482 
L 160.003123 66.244482 
L 160.219632 66.464125 
L 161.735192 66.464125 
L 161.9517 68.440903 
L 162.384717 68.440903 
L 162.601226 68.817432 
L 163.142497 68.817432 
L 163.359006 70.605946 
L 163.792023 70.605946 
L 163.900277 71.515891 
L 164.116786 73.586802 
L 164.549803 73.586802 
L 164.874565 75.092918 
L 165.307583 75.092918 
L 165.415837 72.174817 
L 165.632345 72.331704 
L 166.065362 72.331704 
L 166.281871 74.998786 
L 166.823142 74.998786 
L 167.039651 77.540358 
L 167.256159 76.975564 
L 167.472668 76.975564 
L 167.689176 77.665868 
L 168.013939 73.806444 
L 169.204736 73.806444 
L 169.529499 71.202117 
L 169.962516 71.202117 
L 170.179025 70.198039 
L 170.503787 70.198039 
L 170.720296 69.288093 
L 170.936804 69.288093 
L 171.045059 69.068451 
L 171.369821 70.825588 
L 172.019347 70.825588 
L 172.235856 72.645479 
L 172.452364 72.645479 
L 172.668873 74.182973 
L 172.885381 74.33986 
L 173.318398 74.33986 
L 173.426653 73.963331 
L 173.643161 76.881432 
L 174.076178 76.881432 
L 174.292687 75.092918 
L 174.725704 75.092918 
L 174.833958 74.182973 
L 175.050467 72.112062 
L 175.375229 72.112062 
L 175.483484 73.775066 
L 175.808246 72.268949 
L 175.916501 72.268949 
L 176.024755 72.457214 
L 176.241263 72.896498 
L 176.349518 72.896498 
L 176.566026 72.739611 
L 176.782535 72.739611 
L 176.999043 73.931953 
L 177.215552 71.264872 
L 177.323806 71.264872 
L 177.540315 72.049307 
L 177.756823 72.049307 
L 177.973332 69.507735 
L 178.081586 69.507735 
L 178.298095 70.417681 
L 178.406349 70.417681 
L 178.514603 69.727377 
L 178.731112 70.292171 
L 180.46318 70.323549 
L 180.679688 72.394459 
L 181.545723 72.394459 
L 181.762231 74.120218 
L 181.97874 74.120218 
L 182.303502 72.363082 
L 182.520011 72.363082 
L 182.736519 74.873276 
L 182.953028 74.873276 
L 183.169537 73.053385 
L 183.386045 73.053385 
L 183.710808 69.382226 
L 184.252079 69.382226 
L 184.360333 71.296249 
L 184.576842 68.378148 
L 184.685096 68.378148 
L 184.901605 68.974319 
L 186.092402 68.974319 
L 186.30891 72.363082 
L 186.525419 70.700078 
L 186.850182 70.700078 
L 186.958436 70.511813 
L 187.174944 70.072529 
L 187.499707 70.072529 
L 187.716216 70.91972 
L 187.932724 69.727377 
L 188.257487 69.727377 
L 188.473996 68.942942 
L 188.690504 69.507735 
L 189.015267 69.507735 
L 189.231775 68.59779 
L 189.448284 68.59779 
L 189.664793 68.032996 
L 190.530827 68.032996 
L 190.747335 68.880187 
L 191.072098 68.880187 
L 191.288607 68.032996 
L 191.396861 68.032996 
L 191.613369 65.962086 
L 192.046386 65.962086 
L 192.371149 66.432747 
L 192.479403 66.432747 
L 192.695912 64.706988 
L 192.804166 64.706988 
L 193.020675 66.307237 
L 193.345438 66.307237 
L 193.453692 69.727377 
L 193.6702 67.217183 
L 193.778455 67.217183 
L 193.994963 69.476358 
L 194.536235 69.476358 
L 194.752743 72.896498 
L 195.18576 72.896498 
L 195.402269 70.982475 
L 195.618777 70.982475 
L 195.835286 70.386304 
L 196.70132 70.386304 
L 196.917828 72.676856 
L 197.026083 72.676856 
L 197.350845 69.288093 
L 198.108625 69.288093 
L 198.325134 70.856965 
L 198.433388 70.856965 
L 198.649897 70.009774 
L 198.866405 73.210272 
L 199.299422 73.210272 
L 199.407676 74.559502 
L 199.515931 73.994708 
L 199.732439 76.599035 
L 199.840694 76.599035 
L 200.057202 79.015097 
L 200.814982 79.015097 
L 201.03149 80.427082 
L 201.464508 80.427082 
L 201.681016 79.579891 
L 202.438796 79.579891 
L 202.655304 81.30565 
L 202.980067 81.30565 
L 203.088322 81.117385 
L 203.30483 82.937276 
L 203.737847 86.200529 
L 203.954356 84.60028 
L 204.06261 84.60028 
L 204.279118 85.165074 
L 204.495627 81.744934 
L 204.712136 81.744934 
L 204.928644 79.579891 
L 205.469915 79.579891 
L 205.686424 76.159751 
L 206.33595 76.253883 
L 206.552458 77.791377 
L 207.635001 77.791377 
L 207.851509 75.500825 
L 208.392781 75.500825 
L 208.609289 75.971486 
L 209.042306 75.971486 
L 209.258815 74.402615 
L 209.583578 74.402615 
L 209.800086 71.202117 
L 209.90834 71.202117 
L 210.016595 71.453136 
L 210.233103 72.112062 
L 210.557866 68.158506 
L 210.774374 68.158506 
L 210.990883 65.742444 
L 211.748663 65.742444 
L 211.965171 64.330459 
L 212.289934 66.02484 
L 212.722951 66.02484 
L 212.93946 66.746521 
L 213.372477 66.746521 
L 213.588985 65.020763 
L 214.022002 65.020763 
L 214.238511 63.012607 
L 214.671528 59.968996 
L 214.996291 59.968996 
L 215.212799 59.404202 
L 215.321054 59.404202 
L 215.537562 61.067206 
L 215.754071 60.973074 
L 216.078834 64.581479 
L 216.511851 64.581479 
L 216.728359 65.365914 
L 216.836613 65.365914 
L 216.944868 65.648311 
L 217.161376 68.127128 
L 217.26963 68.032996 
L 217.486139 66.495502 
L 217.810902 66.495502 
L 218.02741 67.436825 
L 218.135665 67.436825 
L 218.352173 70.260794 
L 218.568682 70.260794 
L 218.78519 70.511813 
L 219.326462 70.511813 
L 219.54297 70.041152 
L 220.30075 70.041152 
L 220.517258 72.833743 
L 220.625513 72.833743 
L 220.842021 74.873276 
L 220.950276 75.43807 
L 221.166784 74.779144 
L 221.383293 74.779144 
L 221.599801 77.508981 
L 222.032818 77.508981 
L 222.249327 77.822755 
L 222.465835 77.822755 
L 222.682344 80.332949 
L 222.898852 82.15284 
L 223.223615 80.458459 
L 223.440124 80.929121 
L 223.548378 80.929121 
L 223.656632 82.466615 
L 223.873141 81.744934 
L 224.089649 81.744934 
L 224.306158 83.031409 
L 224.522666 83.031409 
L 224.739175 85.133696 
L 225.063938 85.039564 
L 225.280446 87.518381 
L 225.496955 89.620669 
L 226.038226 89.620669 
L 226.254735 91.252296 
L 226.579497 91.189541 
L 226.687752 91.189541 
L 226.796006 90.750257 
L 227.012514 88.428327 
L 227.445532 88.428327 
L 227.66204 87.643891 
L 227.770294 88.302817 
L 227.878549 88.02042 
L 228.095057 85.886755 
L 228.744583 85.886755 
L 228.961091 84.945432 
L 229.069346 85.94951 
L 229.1776 83.125541 
L 229.394108 84.8513 
L 229.502363 84.8513 
L 229.718871 85.478848 
L 230.043634 85.572981 
L 230.260142 89.024498 
L 230.584905 89.024498 
L 230.801414 89.306895 
L 231.234431 89.306895 
L 231.450939 86.514304 
L 231.559194 86.514304 
L 231.775702 84.47477 
L 231.883956 83.658957 
L 232.100465 84.160996 
L 232.316974 84.160996 
L 232.533482 81.776311 
L 232.749991 81.776311 
L 232.966499 82.843144 
L 233.074753 82.52937 
L 233.291262 83.972732 
L 233.399516 83.972732 
L 233.50777 81.619424 
L 233.616025 82.121463 
L 233.832533 80.301572 
L 233.940788 80.301572 
L 234.157296 83.094163 
L 234.373805 85.510226 
L 234.482059 85.510226 
L 234.590313 83.972732 
L 234.806822 84.976809 
L 234.915076 84.976809 
L 235.02333 85.635735 
L 235.239839 84.349261 
L 235.456347 84.349261 
L 235.672856 82.246973 
L 235.78111 82.246973 
L 235.997619 84.914054 
L 236.214127 82.435237 
L 236.430636 80.113307 
L 236.755398 80.113307 
L 236.971907 82.184218 
L 237.29667 78.952342 
L 237.513178 78.952342 
L 237.621433 79.077852 
L 237.837941 78.98372 
L 238.05445 80.678101 
L 238.270958 80.709479 
L 238.487467 82.654879 
L 238.595721 82.654879 
L 238.81223 81.995953 
L 239.028738 81.650802 
L 239.353501 83.941354 
L 239.894772 83.941354 
L 240.219535 81.211518 
L 240.652552 85.133696 
L 240.869061 86.608436 
L 241.085569 88.051798 
L 241.302078 86.953588 
L 241.518586 86.953588 
L 241.62684 86.671191 
L 241.843349 88.710724 
L 242.276366 88.710724 
L 242.492875 88.961743 
L 242.817637 88.961743 
L 243.034146 88.459704 
L 243.250654 89.871689 
L 243.467163 89.526537 
L 243.683672 91.032654 
L 243.791926 89.965821 
L 244.116689 90.34235 
L 244.224943 90.34235 
L 244.441451 90.656125 
L 244.65796 89.997198 
L 244.874468 90.687502 
L 245.090977 87.894911 
L 245.307486 85.729868 
L 245.41574 85.729868 
L 245.523994 88.14593 
L 245.740503 87.769401 
L 245.848757 87.769401 
L 246.065265 87.110475 
L 246.17352 87.110475 
L 246.390028 88.177307 
L 246.714791 88.177307 
L 246.9313 85.886755 
L 247.689079 85.886755 
L 247.797334 83.815844 
L 248.013842 85.102319 
L 248.555114 85.070942 
L 248.771622 85.792623 
L 248.879876 84.317883 
L 249.096385 85.792623 
L 249.204639 85.761245 
L 249.421148 85.259206 
L 249.637656 86.357416 
L 249.74591 86.357416 
L 249.962419 87.832156 
L 250.287182 85.541603 
L 250.50369 87.455626 
L 250.720199 87.926288 
L 251.153216 87.926288 
L 251.586233 83.721712 
L 251.802742 82.246973 
L 252.127504 79.046475 
L 252.344013 80.395704 
L 252.560521 81.588047 
L 252.77703 80.929121 
L 252.993538 82.058708 
L 253.101793 82.058708 
L 253.210047 83.156918 
L 253.318301 82.905899 
L 253.643064 82.968654 
L 253.967827 82.968654 
L 254.076081 81.713556 
L 254.29259 82.874521 
L 254.400844 82.874521 
L 254.617352 81.368405 
L 254.725607 81.368405 
L 255.05037 82.654879 
L 255.158624 82.654879 
L 255.266878 82.341105 
L 255.483387 83.407938 
L 255.591641 83.407938 
L 256.024658 86.451549 
L 256.132912 86.451549 
L 256.674184 83.251051 
L 256.890692 83.251051 
L 257.107201 84.47477 
L 257.215455 85.572981 
L 257.431963 85.290584 
L 257.648472 85.290584 
L 257.86498 84.914054 
L 258.514506 84.914054 
L 258.731015 85.824 
L 259.164032 88.334195 
L 259.272286 88.334195 
L 259.488794 88.742101 
L 259.597049 87.267362 
L 259.813557 91.409183 
L 259.921812 90.687502 
L 260.13832 91.628825 
L 260.246574 91.126786 
L 260.354829 91.660202 
L 260.571337 91.44056 
L 260.679591 93.229074 
L 260.8961 91.754335 
L 261.112608 93.511471 
L 261.220863 93.511471 
L 261.437371 91.597447 
L 261.65388 91.126786 
L 262.086897 91.126786 
L 262.195151 92.946677 
L 262.303405 92.53877 
L 262.519914 94.672436 
L 262.844677 94.672436 
L 262.952931 93.982132 
L 263.061185 94.264529 
L 263.277694 92.9153 
L 263.602457 90.34235 
L 264.035474 90.436482 
L 264.143728 89.338272 
L 264.360236 91.69158 
L 264.793254 91.69158 
L 265.009762 91.973977 
L 265.118016 90.656125 
L 265.334525 92.507393 
L 265.551033 92.507393 
L 265.659288 93.888 
L 265.875796 93.229074 
L 266.092305 90.781634 
L 266.200559 90.781634 
L 266.525322 92.413261 
L 266.850085 88.679346 
L 266.958339 88.679346 
L 267.174847 89.840311 
L 267.283102 90.59337 
L 267.49961 90.028576 
L 267.824373 90.028576 
L 268.149136 86.92221 
L 268.365644 87.17323 
L 269.448187 87.17323 
L 270.097713 82.435237 
L 270.205967 82.435237 
L 270.422475 82.027331 
L 270.53073 82.027331 
L 270.638984 79.454381 
L 270.855492 79.611268 
L 270.963747 77.697245 
L 271.072001 79.485759 
L 271.396764 77.132451 
L 271.505018 77.132451 
L 271.721527 75.343938 
L 271.829781 75.343938 
L 272.046289 74.120218 
L 272.804069 74.120218 
L 273.020578 75.061541 
L 273.128832 73.24165 
L 273.237086 75.877354 
L 273.453595 73.743689 
L 273.886612 73.743689 
L 274.10312 73.461292 
L 274.644392 73.461292 
L 274.8609 72.237572 
L 275.077409 72.582724 
L 275.293917 70.166661 
L 275.510426 70.637323 
L 275.726934 70.825588 
L 275.943443 70.543191 
L 276.051697 70.543191 
L 276.268206 71.955175 
L 276.484714 71.955175 
L 276.701223 70.574568 
L 276.809477 70.574568 
L 277.025986 70.700078 
L 277.13424 70.700078 
L 277.350748 68.566412 
L 277.567257 72.645479 
L 277.89202 72.645479 
L 278.108528 71.484514 
L 278.216783 70.731455 
L 278.433291 72.802366 
L 278.541545 72.802366 
L 278.758054 74.998786 
L 279.082817 74.998786 
L 279.299325 74.747767 
L 279.515834 77.289339 
L 280.923139 77.289339 
L 281.139648 78.607191 
L 281.464411 78.607191 
L 281.572665 78.450304 
L 281.789173 76.881432 
L 281.897428 76.881432 
L 282.113936 75.092918 
L 282.22219 75.092918 
L 282.438699 77.979642 
L 282.655207 79.234739 
L 282.763462 79.234739 
L 282.871716 78.701323 
L 283.088225 81.399782 
L 283.412987 81.399782 
L 283.629496 83.156918 
L 283.73775 83.156918 
L 283.954259 82.215595 
L 284.062513 82.215595 
L 284.279021 79.391626 
L 284.387276 79.391626 
L 284.603784 81.117385 
L 285.25331 81.117385 
L 285.469818 81.525292 
L 285.686327 81.525292 
L 285.794581 84.160996 
L 286.01109 83.815844 
L 286.227598 83.815844 
L 286.444107 85.133696 
L 286.660615 84.945432 
L 286.985378 84.945432 
L 287.201887 81.682179 
L 287.310141 81.682179 
L 287.526649 84.129619 
L 287.743158 86.200529 
L 287.959667 86.075019 
L 288.176175 86.075019 
L 288.284429 85.510226 
L 288.500938 81.901821 
L 288.717446 81.901821 
L 288.933955 82.15284 
L 289.150463 82.15284 
L 289.366972 80.489837 
L 289.475226 80.489837 
L 289.691735 78.293416 
L 290.233006 78.293416 
L 290.449515 75.751844 
L 290.666023 75.751844 
L 290.882532 76.222506 
L 291.09904 76.222506 
L 291.315549 76.881432 
L 291.85682 76.881432 
L 292.073329 75.500825 
L 292.722854 75.500825 
L 292.939363 76.630412 
L 293.047617 76.630412 
L 293.155871 79.203362 
L 293.37238 76.316638 
L 293.480634 75.061541 
L 293.588888 75.187051 
L 293.805397 76.850054 
L 294.021905 74.151595 
L 294.238414 76.316638 
L 294.346668 76.316638 
L 294.563177 74.559502 
L 294.779685 75.218428 
L 295.212702 75.218428 
L 295.320957 76.41077 
L 295.537465 74.685012 
L 295.645719 74.685012 
L 295.862228 75.43807 
L 296.078737 75.43807 
L 296.186991 76.850054 
L 296.403499 76.442148 
L 296.511754 76.442148 
L 296.620008 77.728623 
L 296.836516 77.352093 
L 296.944771 77.352093 
L 297.161279 80.489837 
L 297.377788 78.701323 
L 298.352076 78.638568 
L 298.568585 75.971486 
L 298.785093 77.508981 
L 298.893347 77.508981 
L 299.109856 79.423004 
L 299.326365 79.423004 
L 299.542873 78.952342 
L 299.867636 79.046475 
L 300.084144 79.077852 
L 300.192399 78.669946 
L 300.300653 79.391626 
L 300.517161 81.148763 
L 300.625416 81.148763 
L 300.841924 83.062786 
L 301.49145 83.062786 
L 301.707958 85.008187 
L 301.924467 85.008187 
L 302.24923 87.330117 
L 302.682247 87.424249 
L 302.898755 89.49516 
L 303.223518 89.49516 
L 303.440027 91.189541 
L 303.656535 91.660202 
L 303.873044 90.530615 
L 303.981298 93.197696 
L 304.089552 90.624747 
L 304.306061 90.718879 
L 304.414315 90.718879 
L 304.522569 90.59337 
L 304.630824 90.185463 
L 304.955586 92.130864 
L 305.172095 92.695658 
L 305.496858 92.695658 
L 305.605112 92.036732 
L 305.929875 93.76249 
L 306.146383 93.76249 
L 306.5794 95.927533 
L 306.687655 95.174475 
L 307.012417 98.343595 
L 307.120672 96.931611 
L 307.33718 100.947922 
L 307.445435 102.767813 
L 307.770197 99.222163 
L 307.878452 99.222163 
L 308.09496 96.08442 
L 308.203214 96.08442 
L 308.527977 100.226241 
L 308.960994 100.226241 
L 309.177503 100.414506 
L 309.394011 99.661447 
L 309.502266 100.037977 
L 309.718774 99.065276 
L 309.827028 99.441805 
L 310.043537 97.527782 
L 310.260045 97.527782 
L 310.476554 98.249463 
L 310.584808 98.751502 
L 310.801317 98.40635 
L 311.12608 100.885167 
L 311.234334 100.163486 
L 311.450842 98.40635 
L 311.559097 100.288996 
L 311.775605 98.374973 
L 312.100368 98.374973 
L 312.425131 103.709136 
L 312.858148 106.062444 
L 312.966402 106.187953 
L 313.182911 104.336685 
L 313.291165 104.336685 
L 313.507673 105.434895 
L 313.615928 105.340763 
L 313.724182 104.14842 
L 313.940691 104.681837 
L 314.157199 104.681837 
L 314.265453 103.081588 
L 314.373708 103.520872 
L 314.590216 103.05021 
L 314.806725 103.05021 
L 314.914979 100.383128 
L 315.239742 104.587704 
L 315.45625 104.587704 
L 315.781013 101.387206 
L 315.889267 103.960156 
L 315.997522 101.230319 
L 316.21403 103.709136 
L 316.538793 103.709136 
L 316.647047 104.430817 
L 316.863556 103.458117 
L 316.97181 103.458117 
L 317.080064 105.309385 
L 317.296573 102.767813 
L 317.404827 103.520872 
L 317.513081 103.489494 
L 317.621336 103.866023 
L 317.72959 102.705058 
L 317.837844 103.897401 
L 318.054353 102.297152 
L 318.162607 101.638226 
L 318.379115 97.151253 
L 318.595624 99.096654 
L 318.920387 101.136187 
L 319.028641 101.136187 
L 319.136895 101.387206 
L 319.461658 97.245385 
L 319.786421 100.288996 
L 319.894675 100.288996 
L 320.002929 100.069354 
L 320.219438 100.791035 
L 320.327692 100.791035 
L 320.544201 98.845634 
L 320.652455 99.786957 
L 320.868964 99.50456 
L 320.977218 99.50456 
L 321.193726 102.359907 
L 321.410235 101.638226 
L 321.518489 101.136187 
L 321.734998 104.932856 
L 321.843252 103.928778 
L 322.059761 104.305307 
L 322.168015 104.305307 
L 322.384523 105.560405 
L 322.492778 105.685914 
L 322.709286 107.662693 
L 322.925795 107.662693 
L 323.142303 107.945089 
L 323.358812 104.807346 
L 323.467066 102.516794 
L 323.57532 102.548171 
L 323.683575 102.548171 
L 324.116592 100.665525 
L 324.224846 100.665525 
L 324.3331 101.230319 
L 324.549609 100.571393 
L 324.657863 100.822412 
L 325.09088 107.69407 
L 325.199134 107.599938 
L 325.415643 107.160654 
L 325.632151 107.662693 
L 325.740406 107.662693 
L 325.84866 108.258864 
L 326.173423 103.960156 
L 326.389931 104.713214 
L 326.498185 104.713214 
L 326.714694 105.811424 
L 326.931203 103.269852 
L 327.147711 100.791035 
L 327.36422 102.046132 
L 327.905491 101.952 
L 328.121999 102.391284 
L 328.230254 102.391284 
L 328.446762 100.85379 
L 328.663271 101.983377 
L 328.879779 100.383128 
L 328.988034 100.383128 
L 329.096288 99.692825 
L 329.312796 104.744591 
L 329.529305 102.799191 
L 329.745813 101.638226 
L 329.962322 102.9247 
L 330.070576 103.677759 
L 330.287085 105.654537 
L 330.395339 105.654537 
L 330.503593 105.936934 
L 330.611848 105.403518 
L 330.720102 104.27393 
L 330.828356 104.870101 
L 330.93661 107.631315 
L 331.153119 107.474428 
L 331.477882 107.474428 
L 331.69439 106.438973 
L 331.910899 106.438973 
L 332.019153 104.775969 
L 332.235662 106.438973 
L 332.45217 107.725447 
L 332.668679 104.713214 
L 332.776933 104.713214 
L 332.993441 102.830568 
L 333.20995 104.39944 
L 333.318204 104.39944 
L 333.534713 100.414506 
L 333.751221 100.445883 
L 333.859476 100.9793 
L 333.96773 100.822412 
L 334.075984 98.500482 
L 334.292493 99.190786 
L 334.509001 99.002521 
L 334.72551 99.002521 
L 334.942018 100.288996 
L 335.158527 102.140265 
L 335.375035 101.136187 
L 335.48329 101.136187 
L 335.591544 101.606848 
L 336.024561 94.139019 
L 336.349324 94.139019 
L 336.457578 93.636981 
L 336.674087 94.484171 
L 336.890595 93.888 
L 337.107104 93.888 
L 337.323612 93.134942 
L 337.431866 94.107642 
L 337.648375 93.009432 
L 338.081392 95.613759 
L 338.297901 94.358661 
L 338.406155 94.358661 
L 338.622663 92.978054 
L 338.839172 94.546926 
L 339.272189 94.515549 
L 339.380443 94.515549 
L 339.488697 93.009432 
L 339.921715 95.864778 
L 340.029969 95.864778 
L 340.354732 90.813012 
L 340.57124 93.888 
L 340.679494 93.888 
L 340.896003 92.695658 
L 341.004257 93.417339 
L 341.220766 91.44056 
L 341.32902 91.44056 
L 341.437274 90.750257 
L 341.653783 93.166319 
L 341.762037 92.601525 
L 341.870291 90.185463 
L 342.0868 92.256374 
L 342.411563 95.425494 
L 342.519817 95.425494 
L 342.84458 97.841556 
L 343.061088 95.958911 
L 343.169343 95.645136 
L 343.385851 94.641058 
L 343.710614 96.962988 
L 343.927122 96.962988 
L 344.143631 94.515549 
L 344.576648 94.578304 
L 344.684902 95.048965 
L 344.901411 94.515549 
L 345.009665 94.515549 
L 345.226174 95.11172 
L 345.334428 95.11172 
L 345.550936 93.417339 
L 345.659191 93.417339 
L 345.767445 93.229074 
L 345.875699 93.605603 
L 346.092208 91.754335 
L 346.308716 94.421416 
L 346.416971 94.421416 
L 346.741733 92.883922 
L 346.958242 92.883922 
L 347.283005 96.33544 
L 347.391259 96.33544 
L 347.607767 95.488249 
L 347.716022 95.770646 
L 348.040785 99.473183 
L 348.149039 99.473183 
L 348.257293 99.63007 
L 348.365547 98.65737 
L 348.582056 100.383128 
L 349.015073 97.747424 
L 349.123327 97.747424 
L 349.339836 99.567315 
L 349.556344 99.567315 
L 349.664599 97.998444 
L 349.989361 98.437728 
L 350.20587 100.822412 
L 350.422378 100.822412 
L 350.638887 99.881089 
L 350.747141 100.351751 
L 350.96365 99.818335 
L 351.071904 99.818335 
L 351.288413 101.983377 
L 351.504921 100.069354 
L 351.613175 100.069354 
L 351.937938 97.370895 
L 352.046192 97.841556 
L 352.262701 99.316296 
L 352.370955 98.343595 
L 352.587464 95.927533 
L 352.695718 95.896156 
L 352.803972 95.551004 
L 353.020481 92.9153 
L 353.236989 91.346428 
L 353.453498 91.315051 
L 353.670006 93.291829 
L 353.778261 93.950755 
L 353.994769 95.299984 
L 354.103023 95.739268 
L 354.211278 95.456872 
L 354.319532 95.802023 
L 354.644295 92.695658 
L 354.860803 92.9153 
L 354.969058 92.9153 
L 355.185566 92.53877 
L 355.402075 92.444638 
L 355.726837 95.11172 
L 355.943346 95.11172 
L 356.159854 93.825245 
L 356.376363 94.076265 
L 356.592872 94.076265 
L 356.701126 95.017588 
L 356.917634 93.825245 
L 357.025889 94.421416 
L 357.242397 91.754335 
L 357.891923 91.754335 
L 358.108431 89.746179 
L 358.32494 90.750257 
L 358.541448 90.750257 
L 358.649703 91.597447 
L 358.974465 87.894911 
L 359.190974 91.817089 
L 359.299228 91.817089 
L 359.515737 90.091331 
L 359.732245 90.091331 
L 359.948754 91.283673 
L 360.057008 91.283673 
L 360.273517 89.714802 
L 360.598279 89.746179 
L 360.706534 89.589292 
L 360.814788 87.04772 
L 361.031296 89.49516 
L 361.247805 89.024498 
L 361.464314 90.185463 
L 361.572568 90.185463 
L 361.789076 88.334195 
L 362.005585 88.334195 
L 362.330348 85.447471 
L 362.546856 85.447471 
L 362.763365 86.451549 
L 362.871619 86.451549 
L 362.979873 85.980887 
L 363.196382 84.506148 
L 363.304636 84.694412 
L 363.629399 85.729868 
L 363.845907 88.240062 
L 364.17067 91.220918 
L 364.495433 87.04772 
L 364.603687 87.04772 
L 364.711942 84.60028 
L 364.92845 84.788545 
L 365.036704 83.690335 
L 365.469721 85.69849 
L 365.577976 85.69849 
L 365.68623 86.200529 
L 365.902738 87.330117 
L 366.119247 87.330117 
L 366.335756 90.373728 
L 366.660518 87.235984 
L 366.985281 87.235984 
L 367.093535 87.643891 
L 367.310044 87.392872 
L 367.526552 87.392872 
L 367.743061 87.581136 
L 367.851315 87.581136 
L 367.95957 86.984965 
L 368.284332 91.032654 
L 368.500841 92.036732 
L 368.933858 92.036732 
L 369.042112 91.377805 
L 369.258621 89.589292 
L 369.475129 89.589292 
L 369.691638 88.459704 
L 369.908146 89.808934 
L 370.016401 89.840311 
L 370.232909 88.051798 
L 370.557672 89.024498 
L 370.665926 89.055875 
L 370.77418 87.863533 
L 370.990689 89.746179 
L 371.207198 91.126786 
L 371.315452 91.126786 
L 371.53196 91.879844 
L 371.748469 91.879844 
L 372.073232 88.742101 
L 372.181486 89.557914 
L 372.397994 88.710724 
L 373.155774 88.742101 
L 373.372283 88.491082 
L 373.480537 89.997198 
L 373.697046 88.993121 
L 374.021808 90.875767 
L 374.130063 91.095409 
L 374.238317 90.907144 
L 374.346571 90.405105 
L 374.56308 93.636981 
L 374.671334 91.126786 
L 374.779588 92.9153 
L 374.996097 89.934444 
L 375.212605 94.358661 
L 375.429114 96.711969 
L 375.645622 98.155331 
L 375.753877 98.40635 
L 376.07864 102.140265 
L 376.186894 100.916545 
L 376.295148 101.763735 
L 376.511657 103.583626 
L 376.728165 101.732358 
L 376.944674 103.395362 
L 377.052928 103.395362 
L 377.377691 100.351751 
L 377.594199 102.203019 
L 377.810708 103.740514 
L 377.918962 103.740514 
L 378.135471 103.332607 
L 378.351979 106.187953 
L 378.460233 106.438973 
L 378.676742 105.026988 
L 378.784996 105.026988 
L 379.109759 109.670848 
L 379.326268 106.784125 
L 379.434522 106.784125 
L 379.65103 107.160654 
L 379.759285 107.160654 
L 379.975793 107.380296 
L 380.192302 108.949167 
L 380.625319 115.695315 
L 380.841827 114.346086 
L 380.950082 113.624405 
L 381.16659 114.157821 
L 381.383099 113.68716 
L 381.599607 114.816747 
L 381.707861 114.816747 
L 381.92437 117.044545 
L 382.140878 115.412918 
L 382.249133 115.412918 
L 382.357387 116.448374 
L 382.573896 116.260109 
L 382.68215 116.260109 
L 382.790404 116.98179 
L 383.006913 115.75807 
L 383.223421 114.628482 
L 383.43993 114.628482 
L 383.656438 115.695315 
L 383.764692 115.695315 
L 384.089455 117.138677 
L 384.305964 117.138677 
L 384.414218 116.354241 
L 384.955489 120.150911 
L 385.171998 119.931268 
L 385.280252 119.931268 
L 385.496761 118.017245 
L 385.605015 118.017245 
L 385.821524 116.228732 
L 385.929778 116.228732 
L 386.254541 110.612171 
L 386.362795 112.243798 
L 386.795812 107.286163 
L 387.01232 108.290241 
L 387.120575 108.447128 
L 387.228829 110.361152 
L 387.445338 107.945089 
L 387.661846 108.133354 
L 387.878355 106.47035 
L 388.203117 109.639471 
L 388.311372 109.639471 
L 388.52788 107.788202 
L 388.744389 106.250708 
L 388.960897 106.250708 
L 389.069152 107.348918 
L 389.177406 104.493572 
L 389.28566 105.37214 
L 389.502169 105.121121 
L 389.610423 105.121121 
L 389.718677 108.070599 
L 389.826931 106.878257 
L 390.04344 103.081588 
L 390.259948 104.619082 
L 390.368203 104.619082 
L 390.584711 104.242553 
L 390.692966 104.242553 
L 390.909474 104.022911 
L 391.017728 102.454039 
L 391.125983 103.646381 
L 391.667254 97.43365 
L 391.775508 97.43365 
L 391.992017 95.299984 
L 392.100271 95.299984 
L 392.533288 101.795113 
L 392.641542 101.795113 
L 392.858051 98.845634 
L 392.966305 98.845634 
L 393.182814 101.418584 
L 393.399322 99.786957 
L 393.507576 100.288996 
L 393.615831 102.171642 
L 393.832339 101.889245 
L 394.157102 104.430817 
L 394.373611 105.340763 
L 394.481865 104.27393 
L 394.698373 108.384374 
L 394.914882 107.662693 
L 395.13139 109.011922 
L 395.239645 109.011922 
L 395.347899 109.89049 
L 395.456153 109.702226 
L 395.564408 108.91779 
L 395.672662 109.0433 
L 395.780916 110.204265 
L 395.88917 108.384374 
L 396.213933 110.612171 
L 396.430442 108.760903 
L 397.079967 111.992778 
L 397.188222 111.741759 
L 397.296476 112.871346 
L 397.512984 115.381541 
L 397.729493 116.416996 
L 397.946001 114.628482 
L 398.054256 114.910879 
L 398.16251 112.149665 
L 398.270764 113.43614 
L 398.379018 117.044545 
L 398.487273 116.85628 
L 398.487273 116.85628 
" clip-path="url(#p37440726a8)" style="fill: none; stroke: #97f0aa; stroke-width: 1.5; stroke-linecap: square"/>
   </g>
   <g id="patch_3">
    <path d="M 57.6 307.584 
L 57.6 41.472 
" style="fill: none; stroke: #000000; stroke-width: 0.8; stroke-linejoin: miter; stroke-linecap: square"/>
   </g>
   <g id="patch_4">
    <path d="M 414.72 307.584 
L 414.72 41.472 
" style="fill: none; stroke: #000000; stroke-width: 0.8; stroke-linejoin: miter; stroke-linecap: square"/>
   </g>
   <g id="patch_5">
    <path d="M 57.6 307.584 
L 414.72 307.584 
" style="fill: none; stroke: #000000; stroke-width: 0.8; stroke-linejoin: miter; stroke-linecap: square"/>
   </g>
   <g id="patch_6">
    <path d="M 57.6 41.472 
L 414.72 41.472 
" style="fill: none; stroke: #000000; stroke-width: 0.8; stroke-linejoin: miter; stroke-linecap: square"/>
   </g>
   <g id="text_19">
    <!-- With heuristic reward -->
    <g transform="translate(183.927345 35.472) scale(0.12 -0.12)">
     <defs>
      <path id="CMSS17-57" d="M 5581 4416 
L 5094 4416 
L 4557 2436 
C 4474 2118 4397 1800 4320 1482 
C 4205 1012 4122 681 4109 516 
L 4102 516 
C 4090 687 4006 1050 3904 1457 
C 3827 1794 3744 2131 3654 2462 
L 3123 4416 
L 2586 4416 
L 2080 2564 
L 1824 1552 
C 1632 751 1626 636 1613 509 
L 1606 509 
C 1606 547 1581 757 1402 1501 
C 1312 1870 1222 2246 1126 2602 
L 634 4416 
L 83 4416 
L 1299 0 
L 1830 0 
L 2336 1838 
L 2592 2850 
C 2765 3562 2803 3740 2816 3899 
L 2822 3899 
C 2822 3874 2880 3473 3130 2544 
L 3808 0 
L 4365 0 
L 5581 4416 
z
" transform="scale(0.015625)"/>
      <path id="CMSS17-75" d="M 2618 2752 
L 2131 2752 
L 2131 976 
C 2131 500 1786 307 1421 307 
C 998 307 960 448 960 712 
L 960 2752 
L 474 2752 
L 474 680 
C 474 179 646 -64 1088 -64 
C 1306 -64 1798 -13 2144 307 
L 2144 -13 
L 2618 -13 
L 2618 2752 
z
" transform="scale(0.015625)"/>
      <path id="CMSS17-72" d="M 954 1369 
C 954 1974 1395 2379 1958 2392 
L 1958 2816 
C 1549 2809 1165 2604 934 2270 
L 934 2783 
L 480 2783 
L 480 0 
L 954 0 
L 954 1369 
z
" transform="scale(0.015625)"/>
      <path id="CMSS17-63" d="M 2464 2540 
C 2464 2585 2170 2713 2093 2739 
C 1882 2816 1613 2816 1542 2816 
C 710 2816 211 2092 211 1363 
C 211 595 768 -64 1517 -64 
C 1946 -64 2253 76 2502 243 
L 2464 665 
C 2189 454 1869 339 1523 339 
C 1024 339 698 774 698 1369 
C 698 1830 909 2412 1549 2412 
C 1901 2412 2099 2342 2394 2143 
L 2464 2540 
z
" transform="scale(0.015625)"/>
      <path id="CMSS17-77" d="M 4013 2752 
L 3526 2752 
L 3187 1600 
C 3117 1356 2918 684 2893 371 
L 2886 371 
C 2874 563 2765 1024 2586 1632 
L 2259 2752 
L 1818 2752 
L 1498 1657 
C 1338 1100 1216 627 1203 371 
L 1197 371 
C 1171 748 909 1632 870 1772 
L 582 2752 
L 83 2752 
L 915 0 
L 1402 0 
C 1734 1100 1990 1952 2010 2380 
C 2022 2169 2131 1715 2195 1491 
L 2618 0 
L 3181 0 
L 4013 2752 
z
" transform="scale(0.015625)"/>
      <path id="CMSS17-61" d="M 2406 1789 
C 2406 2399 1978 2816 1402 2816 
C 1120 2816 813 2764 461 2559 
L 499 2133 
C 659 2250 934 2438 1395 2438 
C 1722 2438 1920 2185 1920 1782 
L 1920 1536 
C 896 1504 256 1209 256 711 
C 256 452 416 -64 947 -64 
C 1043 -64 1562 -52 1933 224 
L 1933 -13 
L 2406 -13 
L 2406 1789 
z
M 1920 824 
C 1920 711 1920 559 1728 446 
C 1562 339 1350 326 1261 326 
C 941 326 723 503 723 723 
C 723 1165 1722 1209 1920 1216 
L 1920 824 
z
" transform="scale(0.015625)"/>
     </defs>
     <use xlink:href="#CMSS17-57" transform="scale(0.996264)"/>
     <use xlink:href="#CMSS17-69" transform="translate(88.242166 0) scale(0.996264)"/>
     <use xlink:href="#CMSS17-74" transform="translate(110.422889 0) scale(0.996264)"/>
     <use xlink:href="#CMSS17-68" transform="translate(144.254456 0) scale(0.996264)"/>
     <use xlink:href="#CMSS17-68" transform="translate(223.688512 0) scale(0.996264)"/>
     <use xlink:href="#CMSS17-65" transform="translate(271.893455 0) scale(0.996264)"/>
     <use xlink:href="#CMSS17-75" transform="translate(313.532277 0) scale(0.996264)"/>
     <use xlink:href="#CMSS17-72" transform="translate(361.73722 0) scale(0.996264)"/>
     <use xlink:href="#CMSS17-69" transform="translate(393.646993 0) scale(0.996264)"/>
     <use xlink:href="#CMSS17-73" transform="translate(415.827716 0) scale(0.996264)"/>
     <use xlink:href="#CMSS17-74" transform="translate(451.741258 0) scale(0.996264)"/>
     <use xlink:href="#CMSS17-69" transform="translate(485.572824 0) scale(0.996264)"/>
     <use xlink:href="#CMSS17-63" transform="translate(507.753547 0) scale(0.996264)"/>
     <use xlink:href="#CMSS17-72" transform="translate(580.621482 0) scale(0.996264)"/>
     <use xlink:href="#CMSS17-65" transform="translate(612.531255 0) scale(0.996264)"/>
     <use xlink:href="#CMSS17-77" transform="translate(654.170077 0) scale(0.996264)"/>
     <use xlink:href="#CMSS17-61" transform="translate(715.387168 0) scale(0.996264)"/>
     <use xlink:href="#CMSS17-72" transform="translate(757.706635 0) scale(0.996264)"/>
     <use xlink:href="#CMSS17-64" transform="translate(789.616407 0) scale(0.996264)"/>
    </g>
   </g>
   <g id="legend_1">
    <g id="patch_7">
     <path d="M 321.192944 84.521192 
L 406.32 84.521192 
Q 408.72 84.521192 408.72 82.121192 
L 408.72 49.872 
Q 408.72 47.472 406.32 47.472 
L 321.192944 47.472 
Q 318.792944 47.472 318.792944 49.872 
L 318.792944 82.121192 
Q 318.792944 84.521192 321.192944 84.521192 
z
" style="fill: #ffffff; opacity: 0.8; stroke: #cccccc; stroke-linejoin: miter"/>
    </g>
    <g id="line2d_19">
     <path d="M 323.592944 56.472 
L 335.592944 56.472 
L 347.592944 56.472 
" style="fill: none; stroke: #92c6ff; stroke-width: 1.5; stroke-linecap: square"/>
    </g>
    <g id="text_20">
     <!-- No target -->
     <g transform="translate(357.192944 60.672) scale(0.12 -0.12)">
      <defs>
       <path id="CMSS17-4e" d="M 1466 4179 
L 1350 4416 
L 563 4416 
L 563 0 
L 1062 0 
L 1062 3925 
L 1069 3931 
C 1114 3817 1139 3759 1402 3193 
L 2771 236 
L 2886 0 
L 3674 0 
L 3674 4416 
L 3174 4416 
L 3174 490 
L 3168 484 
C 3123 598 3098 655 2835 1222 
L 1466 4179 
z
" transform="scale(0.015625)"/>
      </defs>
      <use xlink:href="#CMSS17-4e" transform="scale(0.996264)"/>
      <use xlink:href="#CMSS17-6f" transform="translate(66.061519 0) scale(0.996264)"/>
      <use xlink:href="#CMSS17-74" transform="translate(144.134255 0) scale(0.996264)"/>
      <use xlink:href="#CMSS17-61" transform="translate(177.965822 0) scale(0.996264)"/>
      <use xlink:href="#CMSS17-72" transform="translate(220.285289 0) scale(0.996264)"/>
      <use xlink:href="#CMSS17-67" transform="translate(252.195061 0) scale(0.996264)"/>
      <use xlink:href="#CMSS17-65" transform="translate(299.038685 0) scale(0.996264)"/>
      <use xlink:href="#CMSS17-74" transform="translate(340.677507 0) scale(0.996264)"/>
     </g>
    </g>
    <g id="line2d_20">
     <path d="M 323.592944 73.196596 
L 335.592944 73.196596 
L 347.592944 73.196596 
" style="fill: none; stroke: #97f0aa; stroke-width: 1.5; stroke-linecap: square"/>
    </g>
    <g id="text_21">
     <!-- Target -->
     <g transform="translate(357.192944 77.396596) scale(0.12 -0.12)">
      <defs>
       <path id="CMSS17-54" d="M 2317 3987 
L 2848 3987 
C 2925 3987 3002 3980 3078 3980 
L 3878 3980 
L 3878 4396 
L 218 4396 
L 218 3980 
L 1018 3980 
C 1094 3980 1171 3987 1248 3987 
L 1779 3987 
L 1779 0 
L 2317 0 
L 2317 3987 
z
" transform="scale(0.015625)"/>
      </defs>
      <use xlink:href="#CMSS17-54" transform="scale(0.996264)"/>
      <use xlink:href="#CMSS17-61" transform="translate(56.012199 0) scale(0.996264)"/>
      <use xlink:href="#CMSS17-72" transform="translate(98.331665 0) scale(0.996264)"/>
      <use xlink:href="#CMSS17-67" transform="translate(130.241438 0) scale(0.996264)"/>
      <use xlink:href="#CMSS17-65" transform="translate(177.085061 0) scale(0.996264)"/>
      <use xlink:href="#CMSS17-74" transform="translate(218.723883 0) scale(0.996264)"/>
     </g>
    </g>
   </g>
  </g>
 </g>
 <defs>
  <clipPath id="p37440726a8">
   <rect x="57.6" y="41.472" width="357.12" height="266.112"/>
  </clipPath>
 </defs>
</svg>
